<?xml version="1.0" standalone="no"?>
<!DOCTYPE svg PUBLIC "-//W3C//DTD SVG 20010904//EN"
 "http://www.w3.org/TR/2001/REC-SVG-20010904/DTD/svg10.dtd">
<svg version="1.0" xmlns="http://www.w3.org/2000/svg"
 width="1573.000000pt" height="1600.000000pt" viewBox="0 0 1573.000000 1600.000000"
 preserveAspectRatio="xMidYMid meet">

<g transform="translate(0.000000,1600.000000) scale(0.100000,-0.100000)"
fill="#000000" stroke="none">
<path d="M6320 14510 l0 -40 61 0 c46 0 65 4 74 17 7 9 19 14 29 10 13 -5 16
-21 16 -75 0 -69 -11 -95 -36 -85 -12 4 -14 -21 -14 -141 0 -80 4 -146 8 -146
4 0 13 5 20 12 9 9 12 9 12 0 0 -7 13 -12 30 -12 l30 0 0 210 0 210 70 0 70 0
0 40 0 40 -185 0 -185 0 0 -40z m168 -312 c-2 -80 -2 -81 -5 -18 -2 35 -9 67
-15 71 -12 7 -2 29 13 29 5 0 8 -36 7 -82z"/>
<path d="M7660 14300 l0 -250 50 0 50 0 0 99 c0 96 1 99 27 116 18 12 28 14
31 7 2 -7 24 -12 52 -12 59 0 62 -6 59 -120 l-2 -85 49 0 49 0 3 248 2 248
-52 -3 -51 -3 -1 -100 -1 -100 -82 -3 -83 -3 0 106 0 105 -50 0 -50 0 0 -250z
m58 118 l-2 -83 -3 68 c-2 39 -8 67 -15 67 -7 0 -6 5 2 15 7 8 14 15 16 15 2
0 3 -37 2 -82z"/>
<path d="M9030 14300 l0 -251 165 2 165 1 0 44 0 44 -115 0 -115 0 0 60 0 60
105 0 105 0 0 40 c0 22 -3 39 -7 39 -5 -1 -52 -1 -105 0 l-98 1 0 65 0 65 77
0 c59 0 81 4 96 17 18 17 19 17 33 -2 13 -17 14 -15 14 23 l0 42 -160 0 -160
0 0 -250z"/>
<path d="M9305 14480 c-3 -5 1 -10 10 -10 9 0 13 5 10 10 -3 6 -8 10 -10 10
-2 0 -7 -4 -10 -10z"/>
<path d="M6460 14414 c0 -48 3 -65 13 -62 7 3 13 28 15 66 2 51 0 62 -13 62
-12 0 -15 -13 -15 -66z"/>
<path d="M5630 14191 c0 -5 5 -13 10 -16 6 -3 10 -2 10 4 0 5 -4 13 -10 16 -5
3 -10 2 -10 -4z"/>
<path d="M6995 13874 c-55 -60 -125 -136 -155 -169 -235 -254 -230 -247 -230
-289 0 -20 5 -36 10 -36 6 0 10 -4 10 -10 0 -5 -13 -10 -30 -10 -16 0 -30 5
-30 10 0 6 5 10 10 10 6 0 10 10 10 23 -1 18 -21 1 -100 -83 -91 -95 -100
-107 -100 -143 0 -39 -14 -76 -34 -89 -16 -11 -23 -10 -41 9 -16 15 -19 14
-43 -13 -15 -16 -60 -65 -100 -108 -63 -70 -72 -85 -72 -118 0 -21 5 -38 10
-38 6 0 10 -4 10 -10 0 -5 -16 -10 -35 -10 -33 0 -48 14 -24 22 6 2 10 11 8
19 -3 10 -42 -26 -115 -105 -291 -318 -477 -520 -669 -731 -115 -126 -255
-279 -310 -340 -156 -168 -165 -178 -171 -197 -3 -10 -11 -18 -17 -18 -7 0
-37 -28 -67 -62 -30 -35 -154 -171 -275 -303 -121 -133 -228 -250 -238 -262
-18 -21 -18 -22 3 -43 12 -12 36 -32 54 -43 17 -12 51 -43 75 -69 24 -27 47
-48 52 -48 5 0 9 18 9 40 0 22 -4 40 -10 40 -18 0 -10 18 10 23 19 5 20 0 20
-62 l0 -68 63 -59 c65 -61 130 -119 160 -143 15 -12 17 -11 17 8 0 12 -6 21
-16 21 -8 0 -12 5 -9 10 3 6 15 10 26 10 16 0 19 -7 19 -42 0 -40 4 -46 88
-123 111 -103 270 -245 274 -245 2 0 1 29 -2 65 -4 48 -2 65 7 65 8 0 13 -24
15 -77 l3 -77 155 -144 c307 -284 299 -277 321 -263 42 25 79 -12 79 -79 0
-24 32 -60 55 -60 12 0 5 118 -7 123 -16 5 -10 13 20 21 21 7 22 6 22 -68 0
-47 4 -76 11 -76 5 0 8 -4 4 -10 -3 -5 -13 -6 -22 -3 -37 14 4 -27 242 -243
189 -173 251 -223 253 -210 2 10 -2 22 -8 26 -15 9 -4 30 16 30 10 0 14 -13
14 -49 l0 -49 93 -83 c52 -46 127 -113 167 -149 41 -36 90 -81 110 -100 19
-20 82 -78 140 -130 58 -52 162 -147 231 -210 228 -209 314 -286 352 -320 l37
-32 1 138 c0 77 2 163 5 191 5 42 2 59 -15 86 -26 43 -27 94 -1 127 23 29 28
125 8 134 -10 5 -10 7 0 12 7 4 12 27 12 64 0 37 -5 60 -12 64 -10 5 -10 7 0
12 9 4 12 47 12 164 l0 158 -47 42 c-27 22 -60 43 -75 47 -19 4 -30 15 -38 37
-6 18 -24 42 -40 55 l-30 22 0 -45 c0 -25 5 -48 10 -51 17 -11 1 -23 -25 -20
-26 2 -48 15 -27 15 8 0 12 21 12 60 0 35 -4 60 -10 60 -6 0 -10 6 -8 14 2 8
-37 52 -87 97 -49 45 -142 130 -205 189 -144 135 -180 165 -180 151 0 -6 5
-11 10 -11 6 0 10 -3 10 -8 0 -4 -13 -7 -30 -7 -16 -1 -30 3 -30 7 0 4 5 8 10
8 6 0 10 11 10 24 0 16 -13 35 -37 56 l-38 31 -3 -50 c-4 -60 -21 -79 -57 -63
-22 10 -25 18 -25 60 0 34 6 57 20 75 l20 25 -43 35 c-47 40 -145 130 -193
178 -19 19 -38 30 -47 26 -10 -4 -14 0 -11 11 2 11 -33 49 -99 109 -87 78
-103 89 -105 71 -2 -11 2 -24 9 -29 9 -5 4 -10 -15 -15 -16 -4 -32 -2 -39 5
-8 8 -7 11 6 11 13 0 17 9 17 34 0 29 -11 44 -72 104 -112 107 -138 127 -172
127 -27 0 -31 3 -28 24 2 15 -6 33 -24 52 -26 27 -29 28 -36 12 -3 -10 -7 -30
-7 -44 -1 -36 -45 -60 -67 -37 -25 25 -30 102 -9 134 17 26 17 26 -32 76 -26
27 -60 56 -75 64 -21 11 -28 24 -33 58 -12 77 32 130 74 92 17 -16 23 -12 91
61 121 129 150 179 120 209 -6 6 -3 10 10 11 13 1 20 -6 22 -23 3 -22 16 -10
113 101 76 88 111 136 113 156 2 16 -2 29 -7 29 -6 0 -11 5 -11 10 0 17 48 11
52 -6 2 -10 31 15 88 77 47 51 92 102 100 114 8 13 52 63 96 111 137 149 204
228 204 241 0 6 -6 14 -12 16 -10 4 -9 8 2 16 21 15 30 14 30 -4 0 -9 27 15
60 52 43 48 56 69 45 71 -17 4 -21 22 -5 22 6 0 10 27 10 60 0 48 -3 60 -16
60 -8 0 -12 5 -9 10 3 6 15 10 26 10 17 0 19 -7 19 -70 0 -38 4 -70 9 -70 15
0 61 65 61 86 0 30 29 64 54 64 17 0 52 32 130 121 64 72 105 127 102 135 -3
9 1 14 12 14 24 0 126 116 109 124 -9 5 -9 7 1 12 15 7 17 124 2 124 -5 0 -10
5 -10 10 0 6 7 10 15 10 25 0 21 114 -5 140 -21 21 -27 83 -11 109 6 10 8 1 4
-26 -6 -48 13 -97 29 -70 5 11 5 24 -2 38 -7 12 -8 25 -3 32 13 17 10 36 -5
46 -11 7 -11 9 2 14 12 5 16 20 16 62 0 48 -2 55 -20 55 -11 0 -20 5 -20 10 0
6 5 10 10 10 15 0 13 117 -2 123 -10 4 -9 8 2 16 8 6 18 12 22 13 4 2 8 89 9
193 2 188 2 190 -19 193 -23 4 -30 18 -11 24 6 2 10 12 8 22 -3 14 -29 -9
-104 -90z m-265 -406 c0 -29 7 -65 14 -80 l15 -28 -37 0 c-30 1 -34 3 -19 11
24 14 25 129 1 129 -8 0 -12 5 -9 10 3 6 13 10 21 10 10 0 14 -13 14 -52z
m268 -18 c-2 -39 0 -70 5 -70 4 0 7 -4 7 -10 0 -5 -11 -10 -24 -10 -22 0 -23
3 -19 48 2 26 5 57 7 70 2 12 -1 22 -5 22 -5 0 -9 5 -9 10 0 6 9 10 21 10 19
0 20 -5 17 -70z m-502 -214 c15 -11 19 -27 19 -71 0 -44 -4 -60 -19 -71 -11
-8 -23 -14 -26 -14 -3 0 -15 6 -26 14 -15 11 -19 26 -19 69 0 77 27 105 71 73z
m124 -136 c6 0 10 -4 10 -10 0 -5 -16 -10 -35 -10 -19 0 -35 5 -35 10 0 6 7
10 15 10 12 0 15 13 15 60 0 47 -3 60 -15 60 -24 0 -17 18 8 22 21 3 22 -1 25
-69 2 -40 7 -73 12 -73z m262 133 c24 -21 25 -114 2 -137 -38 -38 -74 -5 -74
66 0 34 6 58 17 70 20 22 31 23 55 1z m-142 -61 c0 -40 5 -73 12 -80 9 -9 3
-12 -27 -12 -32 1 -37 3 -22 11 24 14 25 129 1 129 -8 0 -12 5 -9 10 3 6 15
10 26 10 17 0 19 -7 19 -68z m262 -10 c3 -72 1 -78 -17 -80 -19 -1 -20 4 -17
68 3 48 0 70 -8 70 -6 0 -8 5 -5 10 3 6 15 10 25 10 16 0 19 -10 22 -78z
m-782 -272 c0 -40 4 -70 10 -70 6 0 10 -4 10 -10 0 -5 -13 -10 -30 -10 -16 0
-30 5 -30 11 0 5 5 7 10 4 6 -4 10 18 10 59 0 46 -4 66 -12 66 -9 0 -8 4 2 10
27 17 30 11 30 -60z m640 0 c0 -40 4 -70 10 -70 6 0 10 -4 10 -10 0 -5 -11
-10 -25 -10 -14 0 -25 5 -25 10 0 6 5 10 10 10 6 0 10 27 10 60 0 50 -3 60
-17 60 -15 0 -16 2 -3 10 27 17 30 11 30 -60z m138 0 c-2 -39 0 -70 5 -70 4 0
7 -4 7 -10 0 -5 -10 -10 -23 -10 -22 0 -23 3 -19 70 3 49 1 70 -7 70 -7 0 -9
5 -6 10 3 6 15 10 26 10 19 0 20 -5 17 -70z m-1037 -282 c-2 -57 0 -67 16 -71
10 -3 0 -5 -22 -5 -22 0 -32 2 -22 5 14 4 17 16 17 64 0 35 -4 59 -11 59 -5 0
-7 5 -4 11 17 26 28 -1 26 -63z m129 3 c0 -58 3 -70 18 -74 9 -3 -1 -5 -22 -6
-35 -1 -38 1 -22 12 13 10 17 24 14 67 -2 39 -7 54 -16 52 -8 -1 -11 2 -7 8 3
5 13 10 21 10 11 0 14 -16 14 -69z m520 0 c0 -46 4 -71 13 -74 6 -3 -4 -5 -23
-5 -19 0 -29 2 -22 5 15 6 17 123 2 123 -5 0 -10 5 -10 10 0 6 9 10 20 10 18
0 20 -7 20 -69z m120 4 c0 -50 4 -66 18 -74 13 -8 9 -10 -23 -10 -22 1 -32 3
-22 6 14 4 17 16 17 64 0 49 -3 59 -17 59 -15 0 -16 2 -3 10 27 17 30 11 30
-55z m-1020 -280 c0 -43 4 -75 10 -75 6 0 10 -4 10 -10 0 -5 -13 -10 -29 -10
-17 0 -33 5 -36 10 -3 6 -1 10 4 10 7 0 11 24 11 60 0 33 -4 60 -10 60 -5 0
-10 4 -10 9 0 8 16 16 43 20 4 0 7 -33 7 -74z m279 48 c2 -1 5 -23 8 -50 3
-34 0 -54 -12 -68 -16 -20 -16 -19 -9 4 8 30 7 97 -1 111 -3 5 -16 10 -28 10
-17 0 -19 2 -7 10 9 6 20 5 30 -3 8 -6 17 -12 19 -14z m361 -53 c0 -49 4 -70
13 -70 6 0 4 -5 -5 -11 -12 -7 -24 -7 -35 0 -10 6 -12 11 -5 11 8 0 12 20 12
66 0 41 -4 63 -10 59 -5 -3 -10 -1 -10 4 0 6 9 11 20 11 18 0 20 -7 20 -70z
m130 1 c0 -47 4 -71 13 -74 6 -2 0 -6 -16 -9 -15 -3 -30 -1 -33 3 -3 5 0 9 5
9 7 0 11 24 11 60 0 33 -4 60 -10 60 -5 0 -10 5 -10 10 0 6 9 10 20 10 18 0
20 -7 20 -69z m-513 -17 c-3 -4 -14 -3 -24 0 -15 6 -15 8 -3 16 16 10 39 -4
27 -16z m-45 -19 c3 -13 1 -22 -3 -19 -9 5 -13 44 -5 44 2 0 6 -11 8 -25z m35
-41 c-3 -3 -12 -4 -19 -1 -8 3 -5 6 6 6 11 1 17 -2 13 -5z m-507 -204 c0 -47
-4 -80 -10 -80 -6 0 -10 30 -10 71 0 53 -3 69 -12 64 -7 -4 -4 1 6 9 11 9 21
16 23 16 2 0 3 -36 3 -80z m130 -3 c0 -60 -4 -84 -12 -84 -25 0 -15 165 10
167 1 0 2 -37 2 -83z m512 7 c-2 -39 2 -72 9 -80 9 -12 5 -14 -22 -14 -19 0
-29 4 -23 8 19 13 23 39 15 96 -5 37 -4 57 3 59 18 7 20 -1 18 -69z m128 2 c0
-35 2 -71 5 -78 3 -8 -2 -14 -12 -15 -16 -1 -18 7 -15 78 4 94 22 107 22 15z
m-900 -281 c0 -43 4 -75 10 -75 6 0 10 -4 10 -10 0 -5 -13 -10 -30 -10 -16 0
-30 5 -30 10 0 6 5 10 10 10 15 0 13 117 -2 123 -10 4 -9 8 2 16 27 19 30 12
30 -64z m390 0 c0 -43 4 -75 10 -75 6 0 10 -4 10 -10 0 -5 -17 -10 -37 -10
-29 0 -34 3 -25 12 14 14 16 128 2 128 -5 0 -10 4 -10 9 0 8 16 16 43 20 4 0
7 -33 7 -74z m227 47 c-34 -37 -12 -134 27 -119 23 9 25 99 3 126 -10 11 -9
13 2 9 32 -10 38 -110 9 -141 -17 -19 -48 -9 -59 20 -18 49 -5 123 23 123 6 0
4 -8 -5 -18z m33 -57 c0 -8 -7 -15 -15 -15 -8 0 -15 7 -15 15 0 8 7 15 15 15
8 0 15 -7 15 -15z m-626 -220 c34 -52 9 -145 -40 -145 -40 0 -54 119 -18 155
22 21 39 19 58 -10z m106 -55 c0 -40 4 -70 10 -70 6 0 10 -4 10 -10 0 -5 -11
-10 -24 -10 -14 0 -28 5 -31 10 -3 6 -1 10 4 10 7 0 11 24 11 60 0 33 -4 60
-10 60 -5 0 -10 5 -10 10 0 6 9 10 20 10 18 0 20 -7 20 -70z m148 58 c7 -7 12
-35 12 -63 0 -53 -12 -75 -41 -75 -26 0 -43 28 -43 75 -1 63 38 97 72 63z
m130 0 c7 -7 12 -35 12 -63 0 -55 -12 -75 -46 -75 -21 0 -35 18 -33 43 0 7 4
2 9 -10 19 -47 60 -16 60 44 0 59 -58 88 -61 31 -1 -18 -2 -19 -6 -5 -9 37 38
62 65 35z m-20 -66 c2 -7 -3 -12 -12 -12 -9 0 -16 7 -16 16 0 17 22 14 28 -4z
m-888 -65 c8 -3 -3 -5 -25 -5 -22 0 -32 2 -22 5 9 2 17 10 17 16 0 9 2 9 8 1
4 -6 14 -14 22 -17z m-10 -201 c0 -50 4 -76 13 -79 8 -4 7 -6 -3 -7 -8 -1 -25
-3 -37 -4 -13 -2 -23 1 -23 6 0 4 5 8 10 8 6 0 10 27 10 60 0 33 -4 60 -10 60
-5 0 -10 4 -10 9 0 8 16 16 43 20 4 0 7 -32 7 -73z m142 57 c20 -18 25 -91 8
-124 -13 -24 -65 -26 -74 -3 -12 32 -6 112 10 128 20 20 33 20 56 -1z m132 -5
c9 -12 16 -42 16 -65 0 -80 -67 -108 -90 -38 -27 83 32 164 74 103z m-404 -57
c0 -46 4 -71 13 -74 6 -3 -4 -5 -23 -5 -19 0 -29 2 -22 5 15 6 17 123 2 123
-5 0 -10 5 -10 10 0 6 9 10 20 10 18 0 20 -7 20 -69z m640 0 c0 -46 4 -71 13
-74 6 -3 -4 -5 -23 -5 -19 0 -29 2 -22 5 8 3 12 27 12 69 0 41 -4 63 -10 59
-5 -3 -10 -1 -10 4 0 6 9 11 20 11 18 0 20 -7 20 -69z m-372 -354 c9 -3 -1 -5
-23 -5 -22 0 -34 2 -27 5 8 3 12 26 12 64 0 40 -4 59 -12 59 -7 0 -4 7 7 16
20 15 20 13 23 -60 2 -60 6 -76 20 -79z m112 83 c0 -54 4 -72 15 -76 27 -11
16 -24 -20 -24 -19 0 -35 5 -35 10 0 6 5 10 10 10 15 0 13 117 -2 123 -10 4
-9 8 2 16 27 19 30 12 30 -59z m132 -33 c2 -40 -1 -57 -9 -57 -9 0 -13 21 -13
71 0 53 -3 69 -12 64 -7 -4 -4 1 7 10 23 18 22 21 27 -88z m128 28 c0 -43 4
-75 10 -75 6 0 10 -5 10 -10 0 -6 -12 -8 -26 -6 -28 5 -45 16 -26 16 17 0 16
117 0 123 -10 4 -9 8 2 16 27 19 30 12 30 -64z m-770 -5 c0 -43 4 -70 11 -70
5 0 8 -4 5 -9 -3 -4 -18 -6 -33 -3 -16 3 -22 7 -15 9 15 6 17 123 2 123 -5 0
-10 5 -10 10 0 6 9 10 20 10 18 0 20 -7 20 -70z m130 1 c0 -46 4 -71 13 -74 6
-3 -4 -5 -23 -5 -19 0 -29 2 -22 5 15 6 17 123 1 123 -5 0 -7 5 -4 10 3 6 13
10 21 10 11 0 14 -16 14 -69z m134 -217 c9 -8 16 -21 16 -27 0 -6 -7 -1 -17
12 l-16 24 -19 -23 c-22 -27 -24 -79 -4 -106 13 -16 18 -17 35 -6 12 7 21 8
21 3 0 -10 -24 -21 -45 -21 -37 0 -44 121 -8 147 21 16 18 16 37 -3z m511 4
c2 -7 5 -46 7 -85 l4 -73 -28 0 c-15 0 -28 5 -28 10 0 6 5 10 10 10 15 0 13
117 -2 123 -10 4 -9 8 2 16 20 14 30 14 35 -1z m139 -4 c43 -43 21 -154 -31
-154 -14 0 -43 57 -43 85 0 29 29 85 44 85 8 0 22 -7 30 -16z m-946 -14 c-7
-10 -14 -17 -17 -15 -4 4 18 35 25 35 2 0 -1 -9 -8 -20z m52 -6 c6 -14 10 -35
9 -47 -1 -12 -5 -5 -10 18 -5 21 -15 43 -22 47 -9 6 -9 8 1 8 7 0 17 -12 22
-26z m-43 -111 c9 -7 12 -13 6 -13 -18 0 -34 27 -38 67 l-5 38 10 -40 c6 -22
18 -46 27 -52z m23 62 c0 -8 -4 -15 -9 -15 -13 0 -22 16 -14 24 11 11 23 6 23
-9z m258 4 c-2 -6 -8 -10 -13 -10 -5 0 -11 4 -13 10 -2 6 4 11 13 11 9 0 15
-5 13 -11z m-235 -49 c-3 -11 -10 -23 -16 -27 -7 -4 -8 0 -4 11 4 10 7 22 7
27 0 5 4 9 9 9 5 0 7 -9 4 -20z m515 -175 c17 -36 15 -97 -4 -123 -44 -64
-104 30 -70 111 19 46 56 51 74 12z m107 13 c2 -7 5 -46 7 -85 l4 -73 -28 0
c-15 0 -28 5 -28 10 0 6 5 10 10 10 15 0 13 117 -2 123 -10 4 -9 8 2 16 20 14
30 14 35 -1z m385 -58 c0 -53 4 -72 15 -76 8 -4 12 -10 9 -15 -7 -12 -74 -11
-74 1 0 6 5 10 10 10 15 0 13 117 -2 123 -10 4 -9 8 2 16 33 23 40 13 40 -59z
m278 48 c15 -15 16 -42 2 -33 -6 4 -8 10 -5 15 8 13 -35 24 -47 12 -6 -6 -14
-25 -18 -44 l-8 -33 -1 32 c-2 50 46 82 77 51z m-18 -64 c0 -17 -22 -14 -28 4
-2 7 3 12 12 12 9 0 16 -7 16 -16z m20 -45 c-16 -39 -52 -40 -69 -1 l-12 27
19 -24 c26 -32 49 -22 58 26 5 23 9 31 12 20 2 -10 -2 -32 -8 -48z m-540 -218
c0 -39 5 -73 10 -76 18 -11 11 -21 -14 -20 -24 0 -51 15 -28 15 16 0 16 117 0
122 -15 5 -1 28 18 28 11 0 14 -16 14 -69z m154 47 c31 -43 15 -133 -24 -138
-31 -5 -39 1 -50 36 -28 85 30 165 74 102z m126 7 c14 -16 18 -114 6 -134 -4
-6 -21 -11 -37 -11 -36 0 -53 35 -46 93 8 62 47 88 77 52z m110 -59 c0 -50 4
-76 13 -79 6 -3 -3 -6 -22 -6 -25 -1 -31 2 -24 12 6 7 7 39 4 74 -6 59 -3 70
22 72 4 1 7 -32 7 -73z m390 -1 c0 -43 4 -75 10 -75 6 0 10 -4 10 -10 0 -5
-16 -10 -35 -10 -19 0 -35 5 -35 10 0 6 5 10 10 10 14 0 13 117 -2 122 -17 6
0 28 23 28 17 0 19 -7 19 -75z m-260 -4 c0 -46 4 -71 13 -74 6 -3 -4 -5 -23
-5 -19 0 -29 2 -22 5 16 6 16 115 0 131 -9 9 -7 12 10 12 21 0 22 -5 22 -69z
m102 60 c-19 -11 -27 -83 -13 -110 12 -22 36 -28 46 -11 11 18 7 100 -5 115
-8 10 -9 15 -2 15 19 0 29 -33 28 -83 -3 -66 -39 -89 -70 -45 -27 39 -15 128
17 128 9 0 8 -3 -1 -9z m254 -121 c16 -14 44 2 44 26 0 8 4 14 9 14 13 0 2
-37 -15 -51 -11 -9 -21 -9 -39 -1 -22 10 -25 17 -23 59 l1 48 4 -42 c2 -23 11
-47 19 -53z m-231 50 c-5 -8 -11 -8 -17 -2 -6 6 -7 16 -3 22 5 8 11 8 17 2 6
-6 7 -16 3 -22z m263 9 c-2 -6 -8 -10 -13 -10 -5 0 -11 4 -13 10 -2 6 4 11 13
11 9 0 15 -5 13 -11z m-374 -221 c18 -26 21 -90 6 -119 -16 -29 -58 -25 -70 7
-16 42 -12 92 10 114 26 26 35 25 54 -2z m366 -53 c0 -61 3 -75 16 -75 8 0 12
-4 9 -10 -3 -5 -19 -10 -36 -10 -16 0 -29 5 -29 10 0 6 5 10 10 10 15 0 13
117 -2 123 -10 4 -9 8 2 16 27 19 30 12 30 -64z m-236 -221 c18 -18 22 -95 6
-125 -12 -21 -50 -25 -68 -7 -15 15 -16 102 -2 129 13 23 43 25 64 3z m626
-58 c0 -50 4 -76 13 -79 6 -3 -6 -5 -28 -5 -22 0 -32 2 -22 5 23 6 26 123 2
123 -34 0 -12 23 28 29 4 0 7 -32 7 -73z m-770 -5 c0 -46 4 -71 13 -74 6 -3
-4 -5 -23 -5 -19 0 -29 2 -22 5 16 6 16 115 0 131 -9 9 -7 12 10 12 21 0 22
-5 22 -69z m251 52 c0 -10 2 -40 3 -66 1 -29 8 -52 17 -58 10 -6 2 -9 -26 -8
-22 0 -34 3 -27 6 15 6 17 123 2 123 -5 0 -10 5 -10 10 0 18 40 11 41 -7z
m118 14 c-2 -1 -13 -9 -24 -17 -19 -14 -19 -14 -6 3 7 9 18 17 24 17 6 0 8 -1
6 -3z m40 -36 c-2 -6 -10 2 -17 17 -11 25 -11 25 4 10 9 -9 15 -21 13 -27z
m73 26 c-6 -7 -12 -33 -15 -57 l-4 -45 -1 46 c-1 25 3 50 10 57 16 16 23 15
10 -1z m54 -12 c4 -14 4 -29 0 -32 -3 -4 -6 3 -6 15 0 11 -8 26 -17 31 -17 10
-17 10 -1 11 11 0 20 -10 24 -25z m356 -39 c-1 -33 2 -64 9 -72 9 -12 5 -14
-22 -13 -19 1 -26 3 -16 6 14 4 17 16 17 63 0 45 -4 61 -17 70 -16 9 -15 10 7
8 24 -3 25 -6 22 -62z m-555 -23 c-3 -10 -5 -2 -5 17 0 19 2 27 5 18 2 -10 2
-26 0 -35z m51 15 c-6 -18 -28 -21 -28 -4 0 9 7 16 16 16 9 0 14 -5 12 -12z
m124 -3 c0 -5 -5 -11 -11 -13 -6 -2 -11 4 -11 13 0 9 5 15 11 13 6 -2 11 -8
11 -13z m25 -32 c-3 -10 -5 -4 -5 12 0 17 2 24 5 18 2 -7 2 -21 0 -30z m-141
-31 c-14 -15 -15 -13 -3 17 8 23 13 28 15 16 2 -10 -3 -25 -12 -33z m-41 8
c10 -11 13 -20 7 -20 -6 0 -16 9 -22 20 -6 11 -9 20 -7 20 2 0 12 -9 22 -20z
m130 0 c4 -6 16 -8 27 -4 14 4 18 2 14 -5 -10 -16 -41 -14 -56 4 -8 9 -9 15
-2 15 6 0 14 -5 17 -10z m-217 -293 c9 -3 -1 -5 -23 -6 -33 0 -37 1 -22 10 15
9 18 22 17 72 -1 34 -1 67 1 72 2 6 5 -25 6 -67 3 -62 7 -78 21 -81z m385 1
c7 -4 -3 -7 -23 -7 -19 0 -29 3 -22 6 15 6 17 123 2 123 -17 0 -11 18 8 22 15
3 17 -6 20 -67 2 -40 8 -73 15 -77z m117 78 c0 -50 4 -76 13 -79 6 -3 -4 -5
-23 -5 -19 0 -29 2 -22 5 7 3 12 26 12 63 0 37 -5 60 -12 63 -10 4 -9 8 2 16
27 19 30 12 30 -63z m122 4 c-2 -43 1 -62 13 -74 15 -15 13 -16 -22 -15 -21 1
-30 3 -20 6 23 6 26 123 2 123 -21 0 -19 18 3 22 25 6 27 2 24 -62z m-512 -9
c0 -46 4 -71 13 -74 6 -3 -4 -6 -23 -6 -19 0 -30 3 -23 7 15 10 20 128 5 125
-7 -2 -12 2 -12 7 0 6 9 10 20 10 18 0 20 -7 20 -69z m782 -6 c3 -69 2 -74
-17 -73 -18 2 -20 9 -20 75 0 62 3 73 17 73 14 0 17 -13 20 -75z m-633 -208
c34 -42 18 -147 -24 -147 -33 0 -49 25 -49 80 0 27 6 55 13 64 16 20 45 21 60
3z m130 0 c47 -58 1 -184 -53 -143 -25 18 -32 100 -12 131 18 27 47 33 65 12z
m111 -56 c0 -39 5 -73 10 -76 20 -12 10 -25 -19 -25 -33 0 -49 15 -26 24 22 8
21 116 0 116 -16 0 -20 12 -8 23 3 4 15 7 25 7 16 0 18 -9 18 -69z m128 -7 c2
-39 8 -72 15 -76 7 -4 -2 -8 -22 -8 -28 0 -31 2 -22 14 16 19 10 122 -6 119
-7 -2 -13 1 -13 6 0 11 20 20 35 17 6 -1 11 -34 13 -72z m152 57 c5 -11 10
-38 10 -61 0 -53 -15 -80 -43 -80 -35 0 -47 19 -47 73 0 61 14 87 45 87 14 0
29 -8 35 -19z m112 -61 c3 -74 2 -80 -17 -80 -18 0 -20 6 -18 77 1 43 2 79 3
81 0 1 6 2 14 2 11 0 15 -19 18 -80z m128 70 c0 -5 -6 -7 -14 -4 -32 12 -50
-84 -22 -121 28 -39 63 18 51 83 -5 27 -5 27 6 4 15 -28 2 -90 -23 -106 -45
-28 -80 79 -42 132 15 22 44 30 44 12z m-2 -71 c-2 -6 -8 -10 -13 -10 -5 0
-11 4 -13 10 -2 6 4 11 13 11 9 0 15 -5 13 -11z m-257 -350 c6 -3 2 -9 -9 -11
-11 -3 -26 -2 -33 3 -11 7 -10 9 4 9 16 0 18 8 15 63 -2 43 -7 61 -15 60 -7
-2 -13 1 -13 6 0 5 8 11 18 13 15 3 17 -6 20 -67 2 -38 8 -72 13 -76z m129 76
c0 -41 1 -78 3 -82 1 -5 -7 -9 -19 -11 -19 -3 -20 1 -16 63 3 41 0 70 -7 79
-12 14 -5 19 32 25 4 0 7 -33 7 -74z m128 7 c-1 -31 2 -66 5 -77 6 -18 2 -21
-23 -23 -17 -1 -30 2 -30 8 0 5 5 10 10 10 6 0 10 27 10 60 0 33 -4 60 -10 60
-17 0 -11 18 8 23 28 6 32 -1 30 -61z m146 46 c28 -39 15 -131 -19 -144 -42
-17 -76 71 -50 132 17 40 46 45 69 12z m-144 -343 c5 -82 -2 -97 -37 -76 -10
6 -12 11 -5 11 8 0 12 19 12 59 0 38 -4 61 -12 64 -10 4 -9 8 2 16 27 19 35 5
40 -74z m139 71 c19 -23 25 -83 11 -116 -13 -32 -45 -41 -68 -18 -15 15 -16
102 -2 129 12 22 43 25 59 5z m-267 -71 l3 -75 -30 1 c-16 0 -24 3 -17 6 8 3
12 27 12 68 0 41 -4 65 -12 68 -7 3 -1 6 14 6 26 1 26 0 30 -74z"/>
<path d="M6450 13211 c-15 -28 -12 -74 5 -97 15 -19 15 -19 30 0 25 32 14 116
-15 116 -5 0 -14 -9 -20 -19z m32 -63 c-9 -9 -15 -9 -23 -1 -7 7 -9 20 -5 29
6 16 8 16 23 1 13 -13 15 -19 5 -29z"/>
<path d="M6842 13218 c-7 -7 -12 -19 -12 -29 0 -12 6 -15 25 -11 26 5 29 10
19 36 -7 19 -16 20 -32 4z"/>
<path d="M6830 13144 c0 -11 5 -25 11 -31 16 -16 39 -5 39 19 0 13 -5 18 -14
15 -7 -3 -19 0 -25 6 -8 8 -11 6 -11 -9z"/>
<path d="M5289 11526 c-13 -27 -4 -91 13 -102 13 -8 38 22 38 45 0 11 -3 12
-11 4 -14 -14 -39 -6 -39 13 0 14 12 18 38 15 15 -2 15 4 2 30 -14 26 -28 24
-41 -5z"/>
<path d="M5544 11539 c-8 -13 -7 -96 1 -109 10 -16 42 -12 49 6 3 9 6 31 6 49
0 18 -3 40 -6 49 -7 18 -39 21 -50 5z m36 -54 c0 -8 -7 -15 -15 -15 -8 0 -15
7 -15 15 0 8 7 15 15 15 8 0 15 -7 15 -15z"/>
<path d="M4906 11254 c-11 -29 -7 -48 7 -35 10 8 17 7 25 -1 9 -9 12 -6 12 14
0 14 -7 29 -16 32 -21 8 -21 8 -28 -10z"/>
<path d="M4902 11175 c2 -12 11 -20 23 -20 12 0 21 8 23 20 2 16 -3 20 -23 20
-20 0 -25 -4 -23 -20z"/>
<path d="M5037 11263 c-4 -3 -7 -18 -7 -32 0 -18 3 -22 11 -14 6 6 18 9 25 6
17 -6 18 19 2 35 -14 14 -22 15 -31 5z"/>
<path d="M5030 11173 c0 -27 34 -32 44 -7 10 25 7 29 -19 29 -19 0 -25 -5 -25
-22z"/>
<path d="M5422 10698 c-17 -17 -15 -80 2 -104 16 -21 29 -14 40 22 6 19 3 21
-19 16 -18 -3 -25 0 -25 11 0 22 18 31 35 17 18 -15 18 -10 5 24 -11 29 -20
32 -38 14z"/>
<path d="M5037 10423 c-4 -3 -7 -16 -7 -28 0 -18 4 -21 25 -17 27 5 32 21 13
40 -14 14 -22 15 -31 5z"/>
<path d="M5030 10340 c0 -25 21 -41 37 -29 22 19 16 44 -12 44 -16 0 -25 -6
-25 -15z"/>
<path d="M5421 10131 c-12 -22 -14 -61 -5 -85 9 -24 44 -20 44 4 0 14 -7 20
-21 20 -14 0 -19 5 -17 18 2 9 12 16 21 16 13 -2 17 4 15 19 -4 28 -24 33 -37
8z"/>
<path d="M5546 10135 c-3 -9 -6 -24 -6 -32 0 -12 3 -13 15 -3 8 6 19 9 25 5 8
-5 11 1 8 16 -4 28 -33 37 -42 14z"/>
<path d="M5540 10068 c0 -20 15 -38 31 -38 13 0 19 7 19 23 0 17 -6 22 -25 22
-14 0 -25 -3 -25 -7z"/>
<path d="M5804 9855 c-26 -40 -8 -114 29 -115 14 0 28 54 22 86 -3 18 -12 37
-20 44 -11 9 -17 6 -31 -15z m36 -45 c0 -21 -15 -27 -25 -10 -7 12 2 30 16 30
5 0 9 -9 9 -20z"/>
<path d="M5943 9583 c-7 -2 -13 -14 -13 -25 0 -13 5 -18 14 -15 7 3 19 0 25
-6 12 -12 16 10 5 37 -6 17 -11 18 -31 9z"/>
<path d="M5930 9494 c0 -25 23 -37 39 -21 20 20 13 42 -14 42 -19 0 -25 -5
-25 -21z"/>
<path d="M6321 9016 c-7 -8 -11 -34 -9 -58 3 -38 6 -43 28 -43 22 0 25 5 28
43 3 40 -10 72 -28 72 -4 0 -13 -6 -19 -14z m35 -37 c10 -17 -13 -36 -27 -22
-12 12 -4 33 11 33 5 0 12 -5 16 -11z"/>
<path d="M6449 9006 c-16 -35 -3 -96 20 -96 19 0 31 18 31 46 0 12 -4 12 -20
2 -22 -14 -35 -6 -26 17 4 11 12 14 26 10 23 -7 28 13 8 33 -18 18 -27 15 -39
-12z"/>
<path d="M6836 9015 c-3 -9 -6 -24 -6 -33 0 -14 2 -14 9 -3 5 8 16 11 26 8 13
-5 16 -2 13 15 -4 27 -33 36 -42 13z"/>
<path d="M6830 8940 c0 -25 21 -41 37 -29 22 19 16 44 -12 44 -16 0 -25 -6
-25 -15z"/>
<path d="M7227 8743 c-4 -3 -7 -14 -7 -24 0 -12 6 -16 20 -12 16 4 20 0 20
-17 0 -17 -4 -21 -20 -17 -22 6 -27 -16 -11 -42 25 -39 55 51 35 103 -6 16
-26 21 -37 9z"/>
<path d="M7225 8455 c-3 -8 -7 -22 -10 -30 -5 -18 11 -21 17 -3 6 16 28 1 28
-19 0 -10 -6 -14 -20 -10 -16 4 -20 0 -20 -18 0 -26 22 -39 39 -22 12 12 15
75 5 101 -8 20 -33 21 -39 1z"/>
<path d="M11896 13438 c-13 -43 -13 -58 0 -58 8 0 14 -4 14 -10 0 -5 -13 -10
-30 -10 -16 0 -30 5 -30 10 0 6 5 10 10 10 6 0 10 14 10 31 l0 32 -67 -7 c-38
-4 -110 -17 -160 -28 l-93 -21 0 -172 0 -171 83 21 c45 11 87 23 92 26 6 3 37
7 70 8 33 2 63 5 67 7 5 3 8 28 8 55 0 37 -4 51 -16 56 -15 6 -15 8 2 20 10 7
21 13 26 13 4 0 8 -33 8 -74 l0 -73 103 -6 c151 -8 301 -56 451 -143 32 -19
61 -32 64 -29 4 3 0 10 -8 16 -13 8 -13 10 0 19 8 5 18 10 23 10 6 0 11 -39 9
-61 -1 -4 22 -29 51 -55 l52 -49 3 65 c2 39 -1 66 -7 68 -19 6 -12 22 10 22
19 0 20 -5 17 -70 -2 -51 0 -70 10 -70 6 0 12 -4 12 -10 0 -5 -9 -10 -20 -10
-17 0 -12 -10 31 -62 72 -86 134 -184 168 -265 16 -37 36 -69 45 -71 11 -2 15
-15 14 -46 0 -24 4 -58 10 -77 11 -34 36 -178 48 -274 3 -27 -1 -162 -10 -300
-29 -445 -38 -906 -21 -1048 5 -45 3 -63 -9 -82 -20 -30 -20 -113 -1 -139 21
-27 20 -120 -1 -140 -12 -13 -15 -30 -10 -79 3 -34 6 -82 7 -107 l1 -45 9 35
c6 25 7 15 3 -38 -4 -71 21 -204 55 -294 17 -46 31 -32 31 32 0 47 -3 60 -15
60 -22 0 -18 17 4 23 29 7 31 1 31 -75 0 -41 4 -68 11 -68 5 0 7 -4 4 -10 -3
-5 -15 -10 -26 -10 -24 0 -24 4 6 -76 50 -133 77 -184 96 -184 16 0 19 8 19
58 0 32 -5 63 -12 70 -9 9 -8 12 5 12 14 0 17 -11 17 -69 0 -46 4 -71 13 -74
6 -3 0 -6 -15 -6 -16 -1 -28 -6 -28 -13 0 -19 128 -237 188 -321 47 -65 59
-77 81 -75 20 2 26 -2 26 -17 1 -34 15 -59 45 -83 l30 -23 -1 38 c-2 51 3 65
24 81 16 12 21 11 38 -4 14 -13 19 -29 17 -63 l-2 -46 -3 47 c-5 57 -28 82
-49 53 -30 -41 -5 -149 27 -117 7 6 18 12 23 12 6 -1 0 -10 -13 -20 l-23 -20
23 -20 c29 -24 175 -122 207 -139 18 -10 22 -9 22 3 0 8 -6 17 -12 19 -10 4
-9 8 2 16 24 17 30 13 30 -24 0 -28 5 -37 30 -50 37 -19 40 -19 40 5 0 11 5
20 11 20 6 0 9 -9 6 -19 -6 -26 4 -40 33 -43 23 -3 25 0 25 44 0 25 4 44 9 41
4 -3 6 -28 4 -54 -3 -27 -1 -49 3 -49 25 0 2 -18 -48 -37 -32 -13 -93 -43
-137 -69 l-78 -46 6 -37 c3 -20 1 -53 -5 -74 -8 -32 -14 -37 -39 -37 -24 0
-31 6 -41 35 l-13 35 -28 -27 c-15 -14 -25 -30 -22 -35 3 -5 -3 -12 -13 -14
-10 -3 -38 -33 -61 -67 -38 -56 -42 -68 -42 -123 0 -65 -13 -88 -46 -82 -14 2
-23 -13 -41 -72 -33 -106 -75 -294 -75 -338 0 -123 2 -141 20 -145 9 -3 1 -5
-19 -6 -33 -1 -37 -4 -43 -33 -14 -70 -45 -287 -51 -353 -3 -38 -8 -92 -11
-120 -9 -94 -23 -260 -23 -292 -1 -25 3 -33 17 -34 13 0 12 -2 -5 -9 -20 -8
-23 -17 -23 -64 0 -30 5 -58 11 -61 6 -4 9 -34 8 -72 -2 -45 2 -67 11 -73 10
-6 6 -9 -11 -12 -22 -3 -24 -8 -27 -60 -2 -38 1 -58 8 -58 8 0 11 -23 9 -66
-2 -56 1 -69 17 -82 18 -14 18 -14 -3 -9 -22 5 -23 2 -23 -52 0 -45 4 -62 20
-76 11 -10 20 -23 20 -28 0 -6 -6 -2 -14 9 -13 17 -14 12 -14 -49 0 -59 3 -67
17 -63 12 5 11 2 -3 -9 -17 -13 -19 -27 -18 -141 1 -78 6 -132 13 -140 9 -11
7 -14 -13 -14 -22 0 -26 -6 -37 -67 -13 -69 -54 -194 -90 -275 -25 -54 -26
-64 -5 -60 11 2 14 -12 14 -72 0 -50 4 -76 13 -79 6 -3 -3 -6 -22 -6 -28 -1
-31 1 -22 13 15 18 10 118 -5 123 -6 2 -29 -20 -51 -49 -49 -66 -60 -83 -45
-74 6 3 13 2 17 -4 3 -6 -3 -10 -15 -10 -12 0 -50 -25 -86 -57 -61 -54 -63
-57 -41 -67 18 -10 22 -21 25 -70 3 -64 -9 -89 -42 -84 -29 4 -48 45 -43 95 5
45 5 45 -45 11 -33 -23 -38 -73 -10 -94 15 -12 13 -13 -20 -14 -21 0 -38 5
-38 10 0 6 5 10 10 10 6 0 10 11 10 25 0 14 -2 25 -4 25 -2 0 -55 -25 -117
-55 -90 -43 -241 -98 -357 -131 -10 -3 -10 -9 2 -26 21 -30 20 -91 -2 -118
-16 -20 -21 -21 -41 -11 -13 7 -20 15 -17 19 4 3 11 1 17 -5 23 -23 39 -2 39
47 0 58 -7 80 -26 80 -19 0 -37 -47 -31 -83 2 -15 0 -27 -5 -27 -11 0 -10 53
2 86 l11 27 -42 -6 c-22 -3 -43 -8 -46 -11 -12 -12 -5 -118 8 -127 10 -6 3 -9
-20 -9 -26 0 -31 3 -23 13 6 6 10 36 11 66 l0 54 -61 -7 c-34 -3 -88 -6 -120
-6 l-60 0 4 -60 c3 -58 2 -60 -22 -60 -19 0 -21 3 -12 12 7 7 12 34 12 60 l0
48 -40 0 -40 0 -1 -42 -2 -43 -6 40 c-5 34 -10 40 -33 43 -27 3 -28 1 -28 -41
0 -54 20 -77 48 -56 15 13 16 12 3 -3 -7 -10 -19 -18 -26 -18 -18 0 -47 66
-43 98 2 22 -1 28 -20 30 l-22 3 2 -183 3 -183 70 -12 c39 -6 85 -12 103 -12
l32 -1 0 60 c0 36 -4 60 -11 60 -5 0 -7 5 -4 10 3 5 13 10 21 10 11 0 14 -16
14 -70 0 -67 1 -70 26 -76 24 -6 221 0 350 11 60 5 194 32 231 46 23 8 25 14
20 49 -3 22 -1 40 4 40 5 0 9 -18 9 -40 0 -22 1 -40 3 -40 2 0 27 7 55 15 32
10 52 21 52 30 0 8 -5 15 -11 15 -5 0 -7 5 -4 10 10 16 35 12 35 -6 0 -13 6
-15 28 -9 76 18 360 185 382 224 5 9 12 14 15 13 4 -2 52 38 108 90 70 65 96
94 84 96 -15 3 -15 5 -2 18 21 21 18 111 -4 124 -15 8 -15 9 1 15 28 11 39 -5
38 -54 -3 -76 -2 -77 24 -52 14 13 30 37 37 54 7 18 26 46 43 63 36 36 126
202 126 233 0 11 -6 21 -12 22 -7 0 -1 5 14 10 31 12 54 64 94 218 43 163 45
179 21 187 -18 6 -19 7 -4 16 24 13 24 106 0 124 -16 12 -15 14 15 20 32 6 32
7 32 65 l0 59 -32 0 c-30 1 -31 2 -15 14 23 18 25 111 1 120 -20 8 -9 26 17
26 16 0 19 7 19 44 0 54 -8 76 -26 76 -8 0 -14 5 -14 10 0 6 5 10 10 10 6 0
10 27 10 61 0 37 -4 58 -10 54 -5 -3 -10 -1 -10 5 0 6 7 13 15 16 11 4 15 21
15 58 0 29 -3 56 -7 60 -4 4 -6 40 -4 79 2 55 0 69 -9 60 -7 -6 -11 -31 -9
-62 2 -28 1 -51 -3 -51 -15 0 -9 108 7 124 12 12 15 49 15 204 0 104 5 245 11
313 6 68 11 135 12 148 2 19 -4 27 -23 32 -14 4 -19 7 -12 8 8 1 12 21 12 67
0 46 -3 63 -11 58 -7 -4 -10 -1 -7 7 3 8 13 14 24 14 16 0 19 -8 20 -48 0 -26
3 -49 5 -51 2 -2 17 64 32 147 16 84 42 196 57 251 27 92 27 99 10 103 -38 10
-54 99 -24 141 20 29 55 26 69 -5 12 -28 22 -29 30 -4 3 10 24 47 45 80 22 34
40 64 40 66 0 3 -12 5 -27 5 -21 0 -24 3 -15 12 15 15 16 114 2 123 -13 8 -3
25 16 25 11 0 14 -16 14 -69 0 -89 13 -94 76 -29 88 90 257 194 372 228 l42
13 0 58 c0 36 -5 59 -12 62 -7 3 -3 6 10 6 20 1 22 -3 22 -54 0 -30 5 -55 10
-55 6 0 10 45 10 115 l0 115 -30 0 c-16 0 -30 5 -30 10 0 6 5 10 10 10 15 0
13 117 -2 123 -10 4 -9 8 2 16 32 23 39 12 43 -61 2 -45 4 -22 5 59 l2 132
-56 12 c-46 10 -60 10 -77 -1 -19 -12 -20 -11 -10 2 15 17 7 28 -19 28 -19 0
-23 -10 -10 -26 4 -5 -4 3 -18 18 -14 16 -29 28 -34 28 -5 0 -44 18 -87 40
-43 22 -81 40 -84 40 -10 0 -5 -119 5 -125 6 -3 10 -10 10 -16 0 -12 -57 -12
-65 1 -3 6 -1 10 4 10 16 0 14 117 -1 123 -10 3 -10 7 0 19 11 14 6 21 -35 51
-26 20 -68 56 -93 81 -24 25 -47 46 -51 46 -4 0 -10 -11 -13 -25 -5 -19 -13
-25 -35 -25 -45 0 -65 65 -40 134 10 29 6 38 -45 121 -31 50 -81 139 -111 198
-40 77 -60 107 -70 103 -8 -3 -17 -1 -20 4 -4 6 -1 10 4 10 18 0 13 31 -18
120 -67 192 -91 347 -91 588 0 99 -2 115 -20 134 -27 29 -27 101 -1 127 16 16
21 46 31 201 7 100 13 190 14 198 1 10 -10 19 -29 23 l-30 7 31 1 31 1 6 83
c4 45 7 108 7 140 0 56 -1 57 -21 46 -44 -23 -78 56 -54 129 7 25 52 31 73 10
19 -19 15 354 -6 542 -17 149 -18 154 -42 161 -14 4 -19 7 -12 8 8 1 12 20 12
60 0 38 -4 61 -12 64 -10 4 -10 7 -1 14 31 22 -81 320 -174 460 -84 128 -175
233 -202 233 -5 0 -18 16 -30 35 -24 41 -41 45 -41 11 0 -23 -23 -56 -39 -56
-4 0 -16 6 -27 14 -15 12 -19 27 -19 77 l0 63 -70 41 c-95 55 -173 89 -280
120 -96 28 -331 62 -359 52 -21 -8 -21 -56 2 -73 15 -12 13 -13 -17 -14 -27 0
-32 3 -23 12 7 7 12 27 12 45 0 33 0 33 -50 33 -32 0 -52 -5 -54 -12z m764
-265 c0 -51 4 -69 18 -79 15 -12 13 -13 -20 -14 -21 0 -38 5 -38 10 0 6 5 10
10 10 15 0 13 117 -2 123 -10 4 -10 8 2 16 24 16 30 3 30 -66z m-1030 -3 c0
-40 4 -70 10 -70 6 0 10 -4 10 -10 0 -5 -13 -10 -30 -10 -16 0 -30 5 -30 10 0
6 5 10 10 10 6 0 10 27 10 60 0 33 -4 60 -10 60 -5 0 -10 5 -10 10 0 6 9 10
20 10 18 0 20 -7 20 -70z m1420 -559 c0 -46 4 -71 13 -74 6 -3 -4 -5 -23 -5
-19 0 -29 2 -22 5 15 6 17 123 2 123 -5 0 -10 5 -10 10 0 6 9 10 20 10 18 0
20 -7 20 -69z m120 -1 c0 -60 3 -70 18 -70 13 0 14 -2 4 -9 -7 -4 -25 -6 -40
-2 -19 3 -22 6 -9 9 24 5 26 122 1 122 -8 0 -12 5 -9 10 3 6 13 10 21 10 11 0
14 -16 14 -70z m25 -220 c14 -15 17 -31 13 -76 -6 -70 -36 -95 -72 -58 -22 21
-21 111 1 136 21 23 36 23 58 -2z m-145 -59 c0 -46 4 -71 13 -74 6 -2 -1 -8
-16 -12 -28 -7 -54 4 -29 12 19 7 17 123 -3 123 -8 0 -15 5 -15 10 0 6 11 10
25 10 24 0 25 -2 25 -69z m0 -279 c0 -37 5 -73 11 -79 9 -9 4 -12 -20 -11 -22
1 -29 4 -21 12 13 13 13 126 0 126 -5 0 -10 5 -10 10 0 6 9 10 20 10 18 0 20
-7 20 -68z m120 4 c0 -35 3 -72 6 -80 4 -11 2 -15 -7 -11 -10 4 -14 26 -14 80
0 41 3 75 8 75 4 0 7 -29 7 -64z m130 -284 c0 -40 5 -73 12 -80 9 -9 5 -12
-20 -12 -18 0 -32 5 -32 11 0 5 5 7 10 4 12 -7 12 -5 15 60 1 33 -3 56 -13 68
-14 15 -13 17 6 17 20 0 22 -5 22 -68z m-255 -272 c-2 -43 1 -64 12 -75 13
-13 11 -15 -19 -14 -18 0 -27 3 -20 6 16 6 16 115 0 131 -9 9 -7 12 9 12 19 0
21 -5 18 -60z m135 -10 c0 -40 4 -70 10 -70 6 0 10 -4 10 -10 0 -5 -16 -10
-35 -10 -19 0 -35 5 -35 10 0 6 5 10 10 10 6 0 10 27 10 60 0 33 -4 60 -10 60
-5 0 -10 5 -10 10 0 6 11 10 25 10 24 0 25 -2 25 -70z m120 -275 c0 -36 -4
-65 -9 -65 -5 0 -7 23 -4 52 4 42 2 54 -13 65 -17 12 -16 13 4 13 20 0 22 -5
22 -65z m-127 -297 c-3 -50 -1 -58 13 -58 27 0 7 -13 -21 -15 -26 -1 -33 9
-15 20 6 3 10 31 10 61 0 41 -4 54 -15 54 -21 0 -19 18 3 22 24 5 30 -17 25
-84z m-123 -269 c0 -48 4 -69 13 -70 6 0 1 -4 -11 -10 -15 -6 -30 -5 -40 1
-16 9 -16 9 1 10 14 0 17 10 17 60 0 50 -3 60 -17 60 -17 1 -16 2 1 15 29 22
36 10 36 -66z m126 4 c0 -40 5 -68 13 -72 18 -12 -16 -23 -42 -15 -18 6 -19 7
-3 16 21 12 21 107 -1 115 -18 7 -16 21 5 25 25 6 27 3 28 -69z m-126 -284 c0
-46 4 -69 12 -69 20 0 -2 -14 -27 -17 -13 -2 -26 1 -30 7 -3 5 1 10 9 10 13 0
16 12 16 60 0 47 -3 60 -15 60 -21 0 -19 18 3 23 29 6 32 -1 32 -74z m120 2
c0 -46 4 -71 13 -74 6 -3 -4 -5 -23 -5 -19 0 -27 2 -17 5 24 6 26 123 1 123
-8 0 -12 5 -9 10 3 6 13 10 21 10 11 0 14 -16 14 -69z m26 -229 c1 -7 0 -8 -3
-2 -7 14 -36 13 -51 -2 -7 -7 -12 -8 -12 -2 0 6 3 14 7 18 11 11 56 2 59 -12z
m-57 -39 c-7 -70 19 -106 47 -68 12 16 14 16 14 3 0 -19 -30 -31 -53 -23 -25
10 -40 105 -16 105 5 0 9 -8 8 -17z m41 -13 c0 -5 -7 -10 -15 -10 -8 0 -15 5
-15 10 0 6 7 10 15 10 8 0 15 -4 15 -10z m8 -353 c9 -3 -1 -5 -23 -5 -22 0
-32 2 -22 5 23 6 26 123 2 123 -21 0 -19 18 3 22 15 3 17 -6 20 -69 2 -58 6
-73 20 -76z m241 -474 c1 -37 7 -73 13 -80 8 -10 3 -13 -23 -12 -19 0 -28 3
-21 6 8 3 12 27 12 69 0 49 -3 64 -12 59 -7 -4 -4 1 6 9 11 9 21 16 21 16 1 0
3 -30 4 -67z m141 -2 c0 -38 2 -76 5 -84 4 -10 -1 -13 -17 -11 -13 1 -30 3
-38 3 -12 1 -12 4 3 15 23 18 25 116 2 116 -18 0 -20 16 -2 23 41 17 47 9 47
-62z m-5 -290 c7 -12 -12 -24 -25 -16 -11 7 -4 25 10 25 5 0 11 -4 15 -9z
m389 -210 c4 -5 -3 -7 -13 -4 -13 3 -21 -2 -26 -17 -4 -12 -9 -19 -12 -17 -2
3 0 15 7 26 11 22 35 28 44 12z m-4 -77 c0 -16 -16 -19 -25 -4 -8 13 4 32 16
25 5 -4 9 -13 9 -21z m-104 -230 c24 -57 3 -124 -39 -124 -29 0 -46 29 -47 79
0 81 58 111 86 45z m104 -44 c0 -45 4 -70 13 -73 6 -3 -4 -6 -22 -6 -27 -1
-32 2 -23 11 15 15 16 114 1 124 -8 4 -7 9 2 15 23 14 29 -1 29 -71z m132 -5
c3 -74 3 -75 -22 -75 -14 0 -20 4 -14 8 15 10 18 111 3 128 -9 11 -8 14 9 14
18 0 21 -7 24 -75z m-647 -537 c-1 -29 2 -63 6 -75 7 -19 5 -23 -10 -23 -17 0
-20 9 -23 75 -3 68 4 90 23 79 4 -2 5 -27 4 -56z m132 -3 c1 -33 4 -68 7 -77
3 -15 -2 -18 -27 -17 -18 0 -26 3 -19 6 16 6 17 120 0 125 -17 6 1 30 20 26
13 -3 17 -16 19 -63z m-239 -520 c26 -56 6 -135 -33 -135 -13 0 -28 7 -35 15
-15 18 -15 112 1 131 19 23 54 17 67 -11z m130 0 c26 -56 6 -135 -33 -135 -33
0 -50 27 -50 80 0 26 6 54 14 63 21 26 56 21 69 -8z m-145 -407 c7 -4 -3 -8
-23 -8 -25 1 -31 3 -20 9 10 6 16 29 18 65 3 46 0 57 -14 63 -16 6 -16 7 2 13
17 7 19 1 22 -64 2 -41 8 -74 15 -78z m16 -451 c-1 -20 -2 -20 -6 -2 -3 11
-13 25 -22 33 -14 11 -13 12 7 2 14 -7 22 -19 21 -33z m111 -31 c0 -50 4 -76
13 -79 6 -3 -6 -5 -28 -5 -22 0 -34 2 -27 5 16 6 17 120 0 125 -17 6 0 28 23
28 17 0 19 -7 19 -74z m-170 29 c-11 -28 -4 -91 10 -100 12 -8 38 5 43 21 3
10 4 9 3 -2 0 -9 -9 -22 -18 -28 -42 -26 -78 68 -47 126 15 28 22 16 9 -17z
m35 -35 c0 -7 -6 -15 -12 -17 -8 -3 -13 4 -13 17 0 13 5 20 13 18 6 -3 12 -11
12 -18z m130 -271 c1 -36 5 -70 9 -77 5 -8 -2 -12 -26 -11 -18 0 -27 3 -20 6
8 3 12 27 12 69 0 44 -4 64 -12 64 -9 0 -8 4 2 10 27 17 34 5 35 -61z m-2
-502 c3 -7 3 -35 1 -61 -2 -27 1 -57 7 -67 9 -17 6 -19 -23 -18 -18 0 -27 3
-20 6 8 3 12 27 12 69 0 44 -4 64 -12 64 -9 0 -8 4 2 10 20 13 27 12 33 -3z
m-251 -414 c8 -10 4 -13 -18 -12 -16 0 -23 3 -16 6 8 3 12 27 12 69 0 54 -3
64 -17 65 -15 0 -15 2 2 8 19 8 20 4 23 -58 2 -36 8 -71 14 -78z m5 -280 c15
-11 12 -13 -17 -13 -26 0 -31 3 -22 12 7 7 12 36 12 65 0 41 -4 55 -17 60 -15
6 -14 7 3 13 17 7 19 1 22 -59 2 -47 7 -70 19 -78z m-249 -145 c18 -18 15
-123 -3 -138 -21 -17 -61 -4 -69 22 -9 35 -7 87 4 109 12 21 50 25 68 7z m112
-56 c0 -40 5 -73 12 -80 9 -9 3 -12 -27 -12 -35 1 -38 2 -22 14 25 20 22 136
-4 120 -10 -6 -12 9 -2 19 3 4 15 7 25 7 16 0 18 -9 18 -68z m-505 -352 c8 0
15 -4 15 -10 0 -5 -16 -10 -35 -10 -19 0 -35 5 -35 10 0 6 5 10 10 10 15 0 13
107 -2 114 -9 3 -7 10 7 21 20 16 20 15 23 -60 2 -58 6 -75 17 -75z m-258 128
c30 -38 23 -122 -10 -140 -17 -9 -24 -7 -40 13 -15 19 -18 35 -14 72 5 60 39
87 64 55z m373 -62 c0 -50 4 -76 13 -79 6 -3 -4 -5 -23 -5 -19 0 -29 2 -22 5
8 3 12 27 12 69 0 44 -4 64 -12 64 -9 0 -8 4 2 10 27 17 30 11 30 -64z m-1030
-6 c0 -11 -4 -20 -9 -20 -11 0 -22 26 -14 34 12 12 23 5 23 -14z m520 6 c0 -8
-4 -17 -9 -21 -12 -7 -24 12 -16 25 9 15 25 12 25 -4z"/>
<path d="M13146 12374 c-10 -26 -7 -89 5 -101 17 -17 39 -4 39 24 0 20 -3 23
-13 14 -15 -12 -27 -5 -27 17 0 9 7 13 20 9 16 -4 20 0 20 18 0 13 -7 26 -16
29 -21 8 -21 8 -28 -10z"/>
<path d="M13784 8436 c-9 -50 2 -86 26 -86 14 0 20 7 20 24 0 20 -4 23 -21 19
-17 -5 -20 -2 -17 13 2 11 11 18 21 18 24 -2 19 39 -5 44 -12 2 -19 -6 -24
-32z"/>
<path d="M13277 7344 c-13 -13 -8 -101 7 -113 22 -18 38 11 34 66 -2 34 -8 49
-18 51 -9 1 -19 0 -23 -4z m33 -60 c0 -8 -7 -14 -15 -14 -15 0 -21 21 -9 33
10 9 24 -2 24 -19z"/>
<path d="M13407 7344 c-16 -17 -6 -39 19 -40 20 -2 25 2 22 19 -3 22 -28 34
-41 21z"/>
<path d="M13400 7257 c0 -23 29 -34 41 -16 15 24 10 34 -16 34 -17 0 -25 -5
-25 -18z"/>
<path d="M12884 4806 c-10 -42 4 -98 24 -94 11 2 18 14 20 33 2 21 0 26 -7 16
-11 -16 -31 -6 -31 16 0 11 6 14 21 10 16 -4 20 -1 17 16 -4 32 -36 34 -44 3z"/>
<path d="M12240 4534 c-15 -38 -12 -81 6 -99 15 -15 19 -15 32 -2 14 15 19 97
7 117 -11 19 -36 10 -45 -16z m35 -42 c0 -18 -20 -15 -23 4 -3 10 1 15 10 12
7 -3 13 -10 13 -16z"/>
<path d="M3500 13351 c-82 -12 -227 -50 -297 -78 l-63 -25 0 -74 c0 -43 4 -74
10 -74 6 0 10 -4 10 -10 0 -5 -16 -10 -35 -10 -19 0 -35 5 -35 10 0 6 5 10 10
10 6 0 10 27 10 60 0 41 -4 60 -12 60 -14 0 -130 -69 -139 -83 -3 -5 -9 -7
-12 -5 -20 12 -242 -207 -293 -289 -10 -15 -25 -37 -35 -48 -33 -39 -92 -158
-101 -204 -5 -27 -17 -52 -28 -61 -16 -12 -49 -98 -50 -129 0 -2 11 0 25 3
l25 6 0 -75 c0 -43 4 -75 10 -75 6 0 10 -4 10 -10 0 -5 -16 -10 -35 -10 -36 0
-47 13 -20 24 11 4 15 21 15 61 0 47 -3 55 -19 55 -16 0 -22 -16 -40 -113 -11
-63 -21 -129 -21 -148 0 -19 -7 -83 -15 -144 -20 -153 -20 -411 0 -419 21 -8
21 -114 0 -144 -17 -23 -13 -133 15 -487 28 -355 21 -775 -16 -948 -16 -79
-19 -237 -4 -237 6 0 10 -4 10 -10 0 -5 -13 -10 -30 -10 -16 0 -30 5 -30 10 0
6 5 10 10 10 6 0 10 19 9 43 0 33 -2 38 -9 22 -76 -174 -81 -193 -71 -233 7
-24 8 -55 3 -78 -7 -33 -12 -40 -36 -42 -16 -2 -32 2 -37 9 -4 8 -10 11 -12 9
-11 -13 -77 -129 -77 -134 0 -13 -89 -142 -137 -198 -60 -71 -122 -125 -195
-172 -56 -35 -71 -59 -45 -69 6 -3 -1 -6 -18 -6 -22 -1 -26 2 -15 9 8 5 12 11
9 14 -3 3 -42 -11 -87 -30 -46 -20 -123 -45 -172 -57 l-90 -22 0 -261 0 -260
99 -37 c55 -20 106 -37 115 -37 8 0 19 -6 23 -13 4 -8 21 -22 36 -32 24 -16
30 -16 38 -4 5 8 9 19 9 25 0 11 22 24 40 24 24 0 40 -34 40 -84 0 -49 3 -55
46 -96 106 -103 179 -237 234 -430 19 -66 32 -96 43 -98 25 -5 24 105 0 124
-17 12 -16 13 4 14 20 0 22 -6 25 -75 3 -73 2 -75 -21 -75 -19 0 -22 -4 -17
-22 3 -13 9 -39 12 -60 4 -23 13 -38 25 -41 25 -7 37 -62 27 -121 -6 -29 -5
-81 1 -134 27 -221 34 -497 21 -840 -21 -530 -21 -716 0 -840 17 -103 21 -109
34 -49 5 22 12 27 36 27 26 0 31 -5 40 -40 8 -29 8 -51 0 -81 -10 -38 -14 -41
-41 -37 -16 3 -29 1 -29 -3 0 -20 76 -224 110 -294 33 -68 107 -194 129 -217
3 -4 6 13 7 37 2 105 84 99 84 -6 0 -34 -16 -69 -31 -69 -6 0 -3 7 5 16 27 27
15 124 -15 124 -19 0 -37 -61 -27 -94 5 -17 11 -39 13 -49 10 -43 106 -143
129 -134 12 5 16 0 16 -17 0 -53 217 -217 437 -329 29 -15 55 -27 58 -27 10 0
5 69 -5 75 -13 8 -3 25 15 25 10 0 15 -16 17 -57 l3 -57 99 -33 c262 -86 530
-110 811 -72 113 15 125 19 125 40 0 14 -7 19 -27 20 -16 0 -22 3 -15 6 8 3
12 27 12 68 0 42 -4 65 -12 68 -9 3 -7 7 6 12 11 5 21 3 27 -6 5 -9 9 13 9 59
0 67 -2 72 -21 72 -18 0 -19 2 -9 15 7 9 11 18 8 20 -3 3 -59 2 -126 -2 -101
-5 -120 -8 -111 -20 9 -10 6 -13 -14 -13 -19 0 -25 4 -21 14 4 11 -6 16 -41
21 -42 7 -76 -2 -47 -12 25 -9 11 -23 -23 -23 -34 0 -47 13 -22 23 9 4 8 8 -3
16 -27 19 -56 12 -68 -15 -17 -35 -52 -29 -72 13 -19 42 -43 42 -55 1 -6 -19
-18 -34 -28 -36 -28 -6 -57 27 -57 64 0 27 -5 34 -31 43 -18 6 -34 11 -35 11
-2 0 -4 -22 -4 -50 0 -27 5 -50 10 -50 6 0 10 -4 10 -10 0 -5 -13 -10 -30 -10
-16 0 -30 5 -30 10 0 6 5 10 10 10 6 0 10 24 10 53 l0 52 -58 24 c-212 91
-321 153 -420 239 -118 103 -212 237 -269 382 -17 45 -32 70 -42 70 -13 0 -14
2 -2 9 12 7 12 17 3 53 -41 158 -66 422 -52 552 15 140 12 596 -5 820 -19 251
-18 246 -53 247 -15 0 -21 3 -14 6 8 3 12 27 12 69 0 44 -4 64 -12 64 -8 1 -5
7 6 15 16 12 18 22 12 62 -3 26 -13 53 -22 59 -11 9 -12 13 -2 16 15 5 5 74
-48 333 -89 429 -150 573 -309 731 -45 45 -91 87 -103 93 -20 11 -22 9 -22
-13 0 -15 7 -26 18 -29 9 -3 -1 -5 -23 -6 -24 0 -35 3 -27 7 7 5 15 20 17 35
4 22 -1 31 -32 52 l-38 25 -5 -47 c-3 -27 -9 -54 -13 -60 -10 -16 -49 -17 -65
-1 -14 14 -16 102 -2 128 9 16 4 21 -38 36 -26 9 -51 20 -55 24 -4 4 25 19 65
35 61 24 116 53 223 118 60 37 74 49 68 62 -5 14 13 21 40 16 11 -2 137 109
137 120 0 5 -8 9 -17 9 -16 0 -18 8 -15 60 2 35 -1 66 -7 74 -9 10 -8 15 5 20
8 3 18 6 20 6 2 0 4 -34 4 -75 0 -67 2 -75 19 -75 21 0 91 85 91 111 0 9 -6
19 -12 22 -9 3 -7 7 6 12 11 5 21 3 26 -5 9 -15 41 30 130 185 69 119 110 199
110 214 0 5 -8 12 -17 14 -17 4 -17 5 0 6 14 1 17 11 17 57 0 42 -4 60 -17 70
-16 12 -15 13 10 14 29 0 29 0 24 -55 -3 -30 -1 -55 3 -55 9 0 71 165 96 254
9 33 14 76 11 97 -4 28 -1 39 8 39 7 0 16 8 20 18 12 31 18 173 17 392 -1 118
-1 293 -2 388 l0 172 -24 -6 c-32 -8 -56 27 -56 81 0 47 23 85 51 85 18 0 20
6 17 57 -3 56 -4 58 -33 63 -24 4 -26 7 -12 12 23 10 26 118 2 118 -8 0 -15 5
-15 10 0 6 9 10 19 10 11 0 23 5 26 10 4 6 1 95 -5 198 -11 156 -16 191 -31
211 -23 28 -26 113 -5 130 8 7 15 43 19 90 14 184 82 427 152 544 22 37 49 84
61 103 63 105 236 261 361 327 46 23 61 36 58 48 -7 22 26 35 37 15 7 -12 15
-12 55 4 154 58 390 71 563 30 52 -12 105 -24 117 -27 l23 -5 -1 170 0 170
-42 11 c-125 34 -193 42 -367 46 -102 2 -210 0 -240 -4z m280 -182 c0 -39 4
-69 10 -69 6 0 10 -4 10 -10 0 -5 -16 -10 -35 -10 -19 0 -35 5 -35 10 0 6 5
10 10 10 6 0 10 27 10 60 0 33 -4 60 -10 60 -17 0 -11 18 8 23 29 6 32 -1 32
-74z m-520 -3 c0 -50 -4 -75 -12 -79 -10 -3 -12 14 -10 70 3 52 0 73 -7 69 -6
-4 -11 -2 -11 3 0 6 9 11 20 11 18 0 20 -7 20 -74z m642 -1 c3 -66 1 -75 -16
-79 -11 -3 -15 -1 -10 4 5 5 7 41 4 80 -4 50 -2 70 7 70 7 0 13 -26 15 -75z
m-1128 -526 c5 -21 5 -45 1 -55 -7 -15 -10 -7 -14 31 -5 41 -9 50 -26 50 -17
0 -20 -8 -23 -53 -2 -31 2 -60 9 -68 8 -9 8 -14 1 -14 -33 0 -42 121 -11 141
28 18 54 5 63 -32z m-24 -34 c0 -8 -7 -15 -15 -15 -16 0 -20 12 -8 23 11 12
23 8 23 -8z m15 -64 c-3 -6 -11 -11 -17 -11 -6 0 -6 6 2 15 14 17 26 13 15 -4z
m-131 -147 c35 -35 14 -154 -27 -154 -27 1 -40 21 -45 69 -7 79 32 125 72 85z
m130 0 c35 -34 14 -154 -26 -154 -28 0 -48 34 -48 79 0 74 38 112 74 75z
m-276 -342 c2 -40 7 -72 12 -72 6 0 10 -4 10 -10 0 -5 -17 -10 -37 -10 -34 1
-36 2 -20 14 24 19 25 126 1 126 -14 0 -14 3 -4 15 24 29 35 10 38 -63z m122
-2 c0 -55 3 -71 18 -79 9 -6 13 -10 7 -11 -25 0 -33 20 -37 88 -2 39 0 72 4
72 4 0 8 -31 8 -70z m-120 -275 c0 -43 4 -75 10 -75 6 0 10 -4 10 -10 0 -5
-16 -10 -35 -10 -19 0 -35 5 -35 10 0 6 7 10 15 10 12 0 15 13 15 55 0 40 -4
57 -15 61 -28 11 -15 26 28 33 4 0 7 -33 7 -74z m144 59 c19 -18 21 -91 4
-129 -24 -54 -78 -13 -78 60 0 43 22 85 45 85 7 0 21 -7 29 -16z m-144 -344
c0 -40 4 -70 10 -70 6 0 10 -4 10 -10 0 -5 -13 -10 -30 -10 -16 0 -30 5 -30
10 0 6 5 10 10 10 6 0 10 27 10 60 0 48 -3 60 -16 60 -8 0 -12 5 -9 10 3 6 15
10 26 10 17 0 19 -7 19 -70z m120 1 c0 -46 4 -71 13 -74 6 -3 -1 -6 -18 -6
-20 0 -26 2 -17 8 10 6 13 27 10 75 -1 36 0 66 5 66 4 0 7 -31 7 -69z m-120
-280 c0 -46 4 -71 13 -74 6 -3 -4 -5 -23 -5 -19 0 -29 2 -22 5 15 6 17 123 2
123 -5 0 -10 5 -10 10 0 6 9 10 20 10 18 0 20 -7 20 -69z m154 27 c11 -43 -2
-99 -24 -106 -12 -4 -13 -2 -4 9 31 38 23 129 -11 129 -32 0 -40 -92 -11 -130
9 -13 9 -13 -6 -2 -24 19 -32 66 -18 108 10 30 16 35 38 32 22 -2 29 -10 36
-40z m-24 -26 c0 -13 -12 -22 -22 -16 -10 6 -1 24 13 24 5 0 9 -4 9 -8z m-130
-277 c0 -43 4 -75 10 -75 6 0 10 -4 10 -10 0 -5 -16 -10 -35 -10 -19 0 -35 5
-35 10 0 6 7 10 15 10 23 0 21 105 -2 119 -16 9 -16 12 -3 21 34 22 40 12 40
-65z m150 56 c27 -51 3 -151 -36 -151 -22 0 -44 43 -44 85 0 70 54 114 80 66z
m6 -317 c15 -81 -34 -136 -72 -79 -12 18 -15 37 -11 67 10 76 69 85 83 12z
m-162 -12 c-5 -46 -3 -62 10 -74 14 -14 13 -16 -10 -21 -13 -2 -27 0 -30 4 -3
5 0 9 5 9 7 0 11 24 11 60 0 33 -4 60 -10 60 -5 0 -10 5 -10 10 0 6 9 10 20
10 20 0 21 -4 14 -58z m6 -293 c0 -39 4 -69 10 -69 6 0 10 -4 10 -10 0 -5 -13
-10 -30 -10 -16 0 -30 5 -30 10 0 6 5 10 10 10 15 0 13 117 -2 123 -10 4 -10
8 2 16 24 17 30 3 30 -70z m155 18 c9 -57 -7 -97 -39 -97 -31 0 -51 46 -43 98
13 76 71 76 82 -1z m-164 -572 c2 -53 6 -72 18 -77 10 -4 2 -7 -19 -7 -19 1
-29 3 -22 6 16 6 17 123 1 123 -8 0 -7 5 1 15 7 9 14 14 16 13 1 -2 4 -35 5
-73z m-110 -215 c15 -9 19 -22 19 -70 0 -68 -17 -94 -52 -81 -38 14 -49 109
-17 147 14 17 24 17 50 4z m112 -60 c-2 -43 2 -64 13 -75 14 -13 12 -15 -18
-14 -18 0 -27 3 -20 6 15 6 17 123 2 123 -5 0 -10 5 -10 10 0 6 8 10 18 10 15
0 17 -8 15 -60z m-253 -279 c0 -53 4 -70 16 -75 23 -9 9 -23 -25 -24 -34 -1
-51 15 -27 24 22 9 23 114 1 114 -34 0 -12 23 28 29 4 0 7 -30 7 -68z m122 -3
c-2 -41 2 -60 13 -72 15 -15 14 -16 -17 -15 -18 0 -27 3 -20 6 15 6 17 123 2
123 -5 0 -10 5 -10 11 0 6 8 9 18 7 14 -3 17 -13 14 -60z m-221 -247 c24 -82
-14 -151 -62 -112 -19 15 -23 28 -22 70 1 58 15 81 49 81 18 0 26 -8 35 -39z
m-671 -316 c0 -43 4 -75 10 -75 6 0 10 -4 10 -10 0 -12 -57 -13 -64 -1 -3 5 1
11 9 15 22 8 21 116 0 116 -18 0 -20 16 -2 23 33 14 37 7 37 -68z m243 63
c-19 -9 -23 -19 -23 -60 0 -33 -4 -47 -11 -42 -13 8 -4 81 13 101 6 7 18 13
27 12 11 0 10 -3 -6 -11z m41 -24 c11 -29 6 -79 -10 -102 -16 -23 -39 -29 -48
-13 -4 5 3 7 14 4 23 -6 34 26 28 87 -4 40 5 53 16 24z m-29 -54 c-5 -8 -11
-8 -17 -2 -6 6 -7 16 -3 22 5 8 11 8 17 2 6 -6 7 -16 3 -22z m-125 -259 c0
-39 5 -73 10 -76 6 -3 10 -10 10 -16 0 -12 -57 -12 -65 1 -3 6 -1 10 4 10 15
0 14 117 -1 122 -17 6 0 28 23 28 17 0 19 -7 19 -69z m150 50 c5 -11 10 -38
10 -61 0 -54 -15 -80 -45 -80 -29 0 -45 26 -45 74 0 55 16 86 44 86 15 0 30
-8 36 -19z m-281 -54 c-1 -35 1 -69 5 -75 5 -8 -2 -12 -21 -11 -15 0 -22 3
-15 6 16 6 16 115 0 131 -9 9 -7 12 11 12 21 0 22 -3 20 -63z m411 -233 c13
-33 13 -90 0 -115 -16 -28 -66 -26 -74 4 -9 35 -7 96 4 118 16 29 58 25 70 -7z
m100 -40 c0 -52 4 -70 18 -80 15 -12 12 -13 -22 -14 -31 0 -37 3 -28 12 15 15
17 132 2 123 -5 -3 -10 -2 -10 4 0 9 15 18 33 20 4 1 7 -29 7 -65z m128 -14
c2 -36 8 -68 15 -72 7 -4 -3 -8 -23 -8 -29 1 -32 2 -17 11 13 8 17 23 17 69 0
47 -3 60 -17 64 -14 4 -14 4 2 3 17 -2 20 -11 23 -67z m23 -222 c15 -29 14
-104 -1 -123 -32 -38 -70 -2 -70 65 0 71 45 107 71 58z m239 -338 c0 -45 4
-70 13 -73 6 -3 -4 -5 -23 -5 -19 0 -29 2 -22 5 7 3 12 26 12 63 0 37 -5 60
-12 63 -10 4 -10 8 2 16 24 17 30 3 30 -69z m-113 -212 c18 -23 24 -68 13
-108 -9 -35 -14 -40 -40 -40 -21 0 -31 6 -36 23 -11 34 -7 106 6 122 15 18 44
19 57 3z m131 0 c12 -12 17 -104 6 -132 -4 -9 -18 -16 -33 -16 -45 0 -64 61
-40 129 12 33 44 42 67 19z m-124 -294 c12 -31 6 -102 -10 -118 -34 -34 -64
-4 -64 64 0 27 4 51 8 54 5 3 7 -16 5 -42 -6 -58 15 -94 41 -73 18 15 22 82 6
112 -6 11 -7 19 -1 19 5 0 12 -7 15 -16z m-24 -54 c0 -5 -4 -10 -10 -10 -5 0
-10 5 -10 10 0 6 5 10 10 10 6 0 10 -4 10 -10z m129 -272 c1 -43 7 -76 14 -80
7 -4 -4 -7 -23 -7 -19 0 -29 3 -22 6 8 3 12 27 12 69 0 44 -4 64 -12 64 -9 0
-8 4 2 10 25 16 27 12 29 -62z m131 3 c0 -39 5 -73 10 -76 20 -12 10 -25 -19
-25 -33 0 -49 15 -26 24 22 8 21 116 0 116 -18 0 -20 16 -2 23 33 14 37 7 37
-62z m-229 -251 c9 -31 9 -49 0 -80 -10 -35 -16 -40 -41 -40 -26 0 -31 5 -40
41 -18 67 2 119 46 119 18 0 26 -8 35 -40z m99 -40 c0 -45 4 -70 13 -73 6 -3
-4 -5 -23 -5 -19 0 -29 2 -22 5 15 6 17 119 1 129 -8 4 -7 9 2 15 23 14 29 -1
29 -71z m122 10 c-2 -43 1 -62 13 -74 15 -15 14 -16 -16 -16 -26 0 -30 3 -21
12 15 15 16 114 1 124 -8 4 -7 9 2 15 21 12 24 2 21 -61z m-219 -254 c6 -25 6
-51 -2 -77 -10 -34 -16 -39 -41 -39 -26 0 -31 5 -40 40 -8 29 -8 51 0 81 10
37 13 40 43 37 27 -3 33 -8 40 -42z m97 -24 c0 -40 5 -73 12 -80 9 -9 5 -12
-20 -12 -18 0 -32 5 -32 10 0 6 5 10 10 10 6 0 10 27 10 60 0 36 -4 60 -11 60
-5 0 -7 5 -4 10 3 6 13 10 21 10 11 0 14 -15 14 -68z m128 1 c-2 -51 1 -71 12
-80 12 -10 9 -12 -19 -13 -27 0 -32 3 -23 12 15 15 16 114 2 123 -14 8 -3 25
16 25 12 0 14 -13 12 -67z m-137 -225 c4 -70 10 -125 14 -135 2 -7 -2 -13 -10
-13 -12 0 -15 15 -15 70 0 43 -4 70 -11 70 -5 0 -7 5 -4 10 9 14 25 12 26 -2z
m-87 -312 c11 -60 -10 -116 -44 -116 -29 0 -44 28 -44 82 0 41 5 54 23 69 30
25 57 11 65 -35z m96 -30 c0 -50 4 -76 13 -79 6 -3 -4 -5 -23 -5 -19 0 -29 2
-22 5 15 6 17 119 2 128 -13 8 -3 25 16 25 11 0 14 -16 14 -74z m121 -1 c2
-53 6 -72 18 -77 10 -4 2 -7 -19 -7 -19 1 -29 3 -22 6 15 6 17 119 1 129 -8 4
-7 9 2 15 7 4 14 7 15 6 2 -1 4 -34 5 -72z m-103 -217 c7 -7 12 -37 12 -68 0
-60 -11 -80 -46 -80 -17 0 -25 9 -34 36 -11 31 -7 95 6 116 8 12 49 9 62 -4z
m104 -51 c-3 -50 -1 -67 13 -80 15 -16 14 -17 -17 -16 -18 0 -27 3 -20 6 15 6
17 133 1 133 -5 0 -7 5 -4 10 3 6 12 10 19 10 9 0 11 -17 8 -63z m-126 -287
c-2 -56 1 -73 13 -80 12 -7 8 -9 -16 -10 -18 0 -33 5 -33 10 0 6 5 10 10 10 6
0 10 27 10 60 0 41 -4 60 -12 60 -9 0 -8 4 2 10 26 17 29 11 26 -60z m264
-284 c0 -50 4 -76 13 -79 6 -3 -4 -6 -23 -6 -26 -1 -31 2 -22 11 14 14 16 128
2 128 -5 0 -10 5 -10 10 0 6 9 10 20 10 18 0 20 -7 20 -74z m153 35 c5 -20 4
-48 -1 -70 -9 -34 -10 -33 -11 25 -1 48 -5 63 -18 68 -23 9 -33 -11 -33 -65 0
-45 18 -77 35 -61 5 4 5 1 1 -5 -5 -10 -11 -10 -26 -1 -51 32 -32 154 23 146
14 -2 24 -14 30 -37z m-288 -51 c-6 -9 -9 -9 -16 1 -10 17 0 34 13 21 6 -6 7
-16 3 -22z m260 0 c-5 -8 -11 -8 -17 -2 -6 6 -7 16 -3 22 5 8 11 8 17 2 6 -6
7 -16 3 -22z m895 -477 c1 -5 2 -36 3 -71 1 -43 7 -66 17 -72 11 -7 6 -10 -20
-10 -26 0 -31 3 -22 12 15 15 16 128 1 128 -5 0 -7 5 -4 10 7 12 25 13 25 3z
m424 -35 c14 -56 -2 -112 -33 -116 -35 -5 -51 22 -51 83 0 58 13 77 50 73 20
-2 27 -11 34 -40z"/>
<path d="M2591 12371 c-23 -42 -5 -116 24 -105 8 4 15 16 15 29 0 18 -4 22
-20 18 -14 -4 -20 0 -20 12 0 13 6 16 21 12 17 -5 20 -1 17 21 -4 32 -23 39
-37 13z"/>
<path d="M2716 12374 c-17 -46 2 -118 29 -108 10 4 15 21 15 53 0 58 -29 95
-44 55z m34 -49 c0 -8 -7 -15 -15 -15 -8 0 -15 7 -15 15 0 8 7 15 15 15 8 0
15 -7 15 -15z"/>
<path d="M2591 11811 c-15 -28 -14 -74 4 -97 13 -16 16 -17 25 -4 17 26 12 49
-10 43 -14 -4 -20 0 -20 10 0 22 20 32 31 16 7 -10 9 -5 7 15 -4 36 -23 44
-37 17z"/>
<path d="M2586 10968 c-8 -33 -7 -53 4 -83 9 -23 13 -25 25 -15 8 7 15 21 15
32 0 17 -3 18 -15 8 -12 -10 -16 -9 -21 3 -9 24 5 41 22 26 11 -9 14 -8 14 4
0 46 -33 65 -44 25z"/>
<path d="M2592 10708 c-14 -14 -16 -97 -3 -117 15 -23 38 -5 44 34 9 57 -16
108 -41 83z m28 -64 c0 -9 -5 -14 -12 -12 -18 6 -21 28 -4 28 9 0 16 -7 16
-16z"/>
<path d="M2585 10416 c-3 -9 -7 -23 -10 -33 -9 -27 15 -85 33 -81 20 4 33 59
23 96 -8 30 -38 42 -46 18z m35 -51 c0 -8 -4 -15 -9 -15 -13 0 -22 16 -14 24
11 11 23 6 23 -9z"/>
<path d="M2332 9578 c-15 -15 -16 -72 -2 -98 25 -47 62 27 41 83 -12 30 -21
33 -39 15z m28 -48 c0 -21 -15 -27 -25 -10 -7 12 2 30 16 30 5 0 9 -9 9 -20z"/>
<path d="M2069 9003 c-21 -56 16 -130 41 -83 11 21 13 70 4 94 -10 25 -33 19
-45 -11z m37 -24 c10 -17 -13 -36 -27 -22 -12 12 -4 33 11 33 5 0 12 -5 16
-11z"/>
<path d="M1687 8463 c-4 -3 -7 -28 -7 -55 0 -35 4 -50 16 -55 20 -8 34 13 34
54 0 53 -20 79 -43 56z m33 -59 c0 -8 -7 -14 -15 -14 -15 0 -21 21 -9 33 10 9
24 -2 24 -19z"/>
<path d="M1817 8183 c-4 -3 -7 -14 -7 -24 0 -12 6 -16 20 -12 15 4 20 0 20
-16 0 -23 -25 -29 -33 -8 -3 6 -6 -1 -6 -16 -1 -31 26 -48 40 -26 10 16 12 70
3 93 -6 16 -26 21 -37 9z"/>
<path d="M2066 7895 c-11 -31 -6 -92 9 -105 27 -23 46 6 43 64 -3 43 -6 51
-24 54 -13 2 -24 -4 -28 -13z m34 -51 c0 -14 -3 -14 -15 -4 -8 7 -15 14 -15
16 0 2 7 4 15 4 8 0 15 -7 15 -16z"/>
<path d="M2200 7331 c-15 -28 -12 -74 5 -97 15 -19 15 -19 30 0 15 20 20 72 9
100 -8 22 -31 20 -44 -3z m30 -41 c0 -11 -4 -20 -10 -20 -5 0 -10 9 -10 20 0
11 5 20 10 20 6 0 10 -9 10 -20z"/>
<path d="M2326 7334 c-9 -23 -7 -77 3 -93 13 -21 38 -6 45 27 12 54 -30 112
-48 66z m34 -44 c0 -21 -15 -27 -25 -10 -7 12 2 30 16 30 5 0 9 -9 9 -20z"/>
<path d="M2200 6491 c-14 -28 -12 -64 5 -87 15 -19 15 -19 30 0 18 24 20 77 3
94 -17 17 -26 15 -38 -7z m36 -32 c10 -17 -13 -36 -27 -22 -12 12 -4 33 11 33
5 0 12 -5 16 -11z"/>
<path d="M2200 6211 c-14 -28 -12 -64 5 -87 15 -19 15 -19 30 0 24 31 13 106
-15 106 -5 0 -14 -9 -20 -19z m36 -32 c10 -17 -13 -36 -27 -22 -12 12 -4 33
11 33 5 0 12 -5 16 -11z"/>
<path d="M2200 5651 c-14 -28 -12 -64 5 -87 15 -19 15 -19 30 0 18 24 20 77 3
94 -17 17 -26 15 -38 -7z m36 -32 c10 -17 -13 -36 -27 -22 -12 12 -4 33 11 33
5 0 12 -5 16 -11z"/>
<path d="M2326 5374 c-18 -47 5 -117 33 -100 16 10 23 61 12 89 -12 30 -36 36
-45 11z m34 -44 c0 -21 -15 -27 -25 -10 -7 12 2 30 16 30 5 0 9 -9 9 -20z"/>
<path d="M3995 4237 c-11 -58 31 -119 49 -71 10 27 7 34 -16 31 -15 -1 -23 3
-23 13 0 9 9 15 23 14 16 0 21 4 17 13 -3 8 -5 19 -5 24 0 5 -9 9 -20 9 -14 0
-21 -9 -25 -33z"/>
<path d="M12750 13166 c0 -69 43 -89 55 -26 5 28 -19 70 -40 70 -11 0 -15 -12
-15 -44z m43 7 c9 -9 -13 -34 -24 -27 -14 8 -11 34 4 34 8 0 17 -3 20 -7z"/>
<path d="M6358 13161 c-4 -12 -11 -20 -16 -17 -5 3 -15 0 -21 -8 -9 -10 -7
-16 4 -26 23 -19 48 8 43 46 -3 28 -3 28 -10 5z"/>
<path d="M11995 12990 c-3 -5 -1 -10 4 -10 6 0 11 5 11 10 0 6 -2 10 -4 10 -3
0 -8 -4 -11 -10z"/>
<path d="M8970 12740 c0 -5 5 -10 10 -10 6 0 10 5 10 10 0 6 -4 10 -10 10 -5
0 -10 -4 -10 -10z"/>
<path d="M2493 12565 c-3 -9 -3 -18 -1 -21 3 -3 8 4 11 16 6 23 -1 27 -10 5z"/>
<path d="M6717 12383 c-4 -3 -7 -11 -7 -17 0 -6 5 -5 12 2 6 6 9 14 7 17 -3 3
-9 2 -12 -2z"/>
<path d="M10518 12182 l-78 -3 3 -69 c2 -39 5 -72 8 -74 2 -2 31 -5 64 -7 l60
-4 3 38 c2 22 -1 37 -8 37 -6 0 -8 5 -5 10 3 6 13 10 20 10 11 0 13 -11 11
-45 l-4 -45 41 -1 c61 -1 440 -1 453 0 14 1 8 62 -7 72 -8 4 -4 11 10 18 20
11 21 10 21 -39 0 -56 -6 -53 105 -52 110 1 105 -1 105 31 0 16 8 39 18 51
l19 23 21 -21 c13 -13 22 -35 22 -52 l0 -30 65 0 65 0 0 75 0 75 -237 0 c-131
0 -341 1 -468 3 -126 1 -265 1 -307 -1z"/>
<path d="M7000 11873 c1 -255 3 -311 15 -327 8 -11 15 -38 15 -61 0 -23 -7
-50 -15 -61 -12 -16 -14 -68 -15 -296 l0 -278 99 0 c55 0 106 3 115 6 12 5 16
20 16 61 0 61 -14 83 -54 83 -30 0 -30 -1 -26 263 l2 137 -36 0 c-20 0 -36 5
-36 10 0 6 5 10 10 10 6 0 10 27 10 60 0 33 -4 60 -10 60 -5 0 -10 5 -10 10 0
6 9 10 20 10 18 0 20 -7 20 -70 0 -54 3 -70 14 -70 13 0 15 40 13 270 l-2 270
-32 0 c-18 0 -33 5 -33 10 0 6 5 10 10 10 15 0 13 117 -2 123 -10 4 -9 8 2 16
27 19 30 12 30 -65 0 -56 3 -75 13 -72 6 3 13 14 15 26 2 15 10 22 26 22 19 0
23 6 24 36 3 88 75 88 89 0 7 -43 33 -50 33 -8 0 54 50 93 78 60 6 -7 13 -30
17 -50 7 -35 10 -38 41 -38 32 0 34 2 34 35 0 25 -4 35 -16 35 -8 0 -12 5 -9
10 3 6 15 10 26 10 16 0 19 -7 19 -45 l0 -45 55 0 55 0 0 35 c0 27 -4 35 -17
35 -16 1 -16 2 1 15 31 23 36 18 36 -35 l0 -50 39 0 c35 0 38 2 34 23 -3 16 4
34 19 52 l24 28 22 -28 c12 -15 22 -38 22 -51 0 -21 5 -24 35 -24 33 0 35 2
35 34 0 19 -6 37 -12 39 -10 4 -9 8 2 16 31 22 40 12 40 -39 l0 -50 34 0 c30
0 35 4 39 28 l4 27 2 -27 c0 -18 7 -28 16 -28 8 0 14 5 12 11 -1 6 4 14 12 17
10 3 12 0 8 -12 -4 -10 -1 -16 9 -16 11 0 13 7 8 28 -10 48 -13 52 -34 52 -12
0 -18 4 -15 11 12 19 49 -16 58 -55 8 -31 13 -36 37 -36 36 0 37 -7 35 -259
-1 -158 2 -204 12 -208 9 -4 13 -27 13 -74 0 -48 4 -69 13 -70 6 -1 1 -4 -12
-8 l-23 -6 -2 -197 c-1 -189 0 -197 19 -200 39 -6 55 -79 30 -140 -6 -15 -1
-18 30 -18 33 0 36 2 28 23 -16 44 -9 108 14 127 21 17 22 26 24 210 2 171 1
193 -14 202 -9 5 -17 14 -17 21 0 7 4 6 10 -3 15 -23 32 7 19 33 -7 12 -7 28
0 47 10 30 1 47 -19 35 -5 -3 -10 -1 -10 4 0 6 6 11 14 11 10 0 17 16 22 46 5
38 3 51 -16 76 -12 16 -19 32 -16 35 3 4 6 1 6 -5 0 -7 5 -12 11 -12 8 0 9 13
5 38 -3 22 -3 42 0 45 7 7 8 63 3 225 -3 126 -20 138 -32 22 -3 -29 -4 -28 -5
11 -2 33 4 54 18 72 11 14 20 35 20 46 l0 21 -635 0 -635 0 0 -307z m1237
-125 c-2 -13 -4 -3 -4 22 0 25 2 35 4 23 2 -13 2 -33 0 -45z m0 -280 c-2 -13
-4 -3 -4 22 0 25 2 35 4 23 2 -13 2 -33 0 -45z"/>
<path d="M8680 11869 c0 -225 3 -316 12 -326 15 -18 15 -100 0 -115 -15 -15
-16 -164 -2 -173 15 -10 12 -78 -6 -114 -13 -26 -15 -55 -11 -159 l5 -127 27
-3 c15 -2 38 -1 51 2 22 6 24 12 24 62 0 39 -4 56 -15 60 -18 7 -10 24 11 24
11 0 14 -16 14 -70 0 -63 2 -70 20 -70 20 0 20 7 20 287 0 277 -1 286 -18 270
-24 -22 -35 -21 -57 3 -14 15 -17 31 -13 76 6 70 36 95 72 59 8 -8 17 -15 20
-15 3 0 6 144 6 320 l0 320 -80 0 -79 0 -1 -311z m111 -51 c0 -13 0 -44 -1
-70 -1 -35 3 -49 17 -57 15 -9 11 -10 -22 -10 -35 0 -38 1 -22 13 12 10 17 27
17 66 0 39 -5 56 -17 66 -17 12 -16 13 5 14 16 0 22 -6 23 -22z"/>
<path d="M10028 12153 c-45 -37 -47 -41 -41 -79 8 -51 -5 -102 -28 -109 -25
-8 -59 20 -59 48 0 20 -47 -20 -245 -207 -49 -47 -93 -86 -97 -86 -5 0 -8 -4
-8 -10 0 -18 30 -11 31 8 0 11 2 12 6 4 8 -20 -17 -42 -41 -37 -16 5 -36 -9
-86 -60 -54 -54 -61 -65 -42 -65 21 0 22 -4 22 -70 0 -51 4 -70 13 -70 25 0
55 45 61 92 8 52 29 68 66 48 19 -10 31 -2 108 71 59 56 86 89 84 102 -2 17 0
18 13 7 15 -12 17 -10 19 20 1 8 9 14 19 12 21 -4 24 40 3 57 -16 13 -27 2
-45 -44 l-11 -30 5 34 c6 41 32 63 57 50 10 -5 18 -16 18 -24 0 -29 23 -14
116 77 l94 93 0 57 c0 36 -5 58 -12 61 -10 4 -9 8 2 16 26 18 35 6 40 -53 l5
-57 45 45 c24 26 40 46 36 46 -5 0 -3 7 4 15 7 8 20 15 29 15 10 0 28 11 41
25 l23 25 -105 0 c-101 0 -108 -1 -140 -27z"/>
<path d="M7743 12108 c-18 -22 -20 -78 -3 -78 5 0 7 7 4 15 -4 9 0 15 10 15 9
0 16 -7 16 -15 0 -8 5 -15 11 -15 15 0 3 60 -15 78 -10 11 -15 11 -23 0z"/>
<path d="M7227 12103 c-3 -5 -8 -24 -11 -43 -5 -28 -5 -31 4 -17 6 9 17 17 25
17 7 0 16 -8 18 -17 3 -10 5 -4 6 13 1 38 -28 71 -42 47z"/>
<path d="M7350 12084 c-13 -32 -13 -54 0 -54 5 0 7 7 4 15 -4 10 0 15 14 15
11 0 23 -8 25 -17 3 -13 5 -12 6 5 1 27 -15 62 -30 62 -5 0 -14 -12 -19 -26z"/>
<path d="M11336 12094 c-9 -25 -7 -64 4 -64 6 0 9 5 8 11 -2 6 3 14 10 16 6 3
12 -2 12 -11 0 -9 5 -16 10 -16 11 0 13 39 4 64 -3 9 -14 16 -24 16 -10 0 -21
-7 -24 -16z"/>
<path d="M9947 12084 c-3 -3 -1 -15 6 -25 9 -14 9 -21 0 -30 -10 -10 -15 -7
-22 12 -9 23 -10 23 -10 -7 -1 -17 5 -36 12 -43 21 -17 37 7 37 56 0 40 -8 52
-23 37z"/>
<path d="M2710 11762 c0 -22 5 -44 10 -47 7 -4 8 8 4 37 -9 57 -14 61 -14 10z"/>
<path d="M8772 11538 c-18 -18 -15 -93 4 -109 21 -18 34 3 34 57 0 46 -19 71
-38 52z m28 -48 c0 -11 -7 -20 -15 -20 -8 0 -15 9 -15 20 0 11 7 20 15 20 8 0
15 -9 15 -20z"/>
<path d="M9344 11518 c-26 -23 -34 -38 -34 -64 0 -19 5 -34 10 -34 6 0 10 -4
10 -9 0 -5 -13 -9 -29 -9 -27 1 -28 2 -15 27 30 57 7 41 -139 -99 -65 -63 -68
-66 -62 -102 4 -21 3 -38 -2 -38 -4 0 -9 12 -9 26 -2 32 -12 43 -24 24 -6 -9
-5 -17 2 -21 6 -4 7 -12 3 -18 -5 -9 -10 -9 -21 0 -19 16 -29 -12 -14 -40 14
-27 34 -27 48 2 7 14 11 17 11 6 1 -20 -19 -39 -42 -39 -11 0 -22 11 -29 32
l-11 31 -26 -29 c-15 -16 -45 -44 -69 -62 l-42 -34 0 -105 c0 -105 0 -106 20
-88 23 21 29 100 8 108 -10 4 -9 8 2 16 23 16 35 8 37 -25 0 -16 2 -33 2 -37
2 -13 31 11 125 100 47 45 86 87 86 92 0 6 5 11 10 11 6 0 10 27 10 60 0 33
-4 60 -10 60 -5 0 -10 5 -10 10 0 6 9 10 20 10 18 0 20 -7 20 -62 l0 -62 40
39 c21 21 40 48 42 59 2 13 14 25 34 31 43 14 153 115 125 115 -11 0 -23 5
-26 10 -3 6 1 10 9 10 13 0 16 12 16 59 0 51 -3 59 -21 64 -13 4 -31 -4 -55
-25z"/>
<path d="M9542 11538 c-7 -7 -12 -21 -12 -32 0 -18 1 -18 25 4 13 12 22 27 19
31 -7 12 -18 11 -32 -3z"/>
<path d="M10506 11516 c9 -50 -11 -103 -44 -115 -18 -6 148 -10 521 -10 l547
-1 0 79 0 80 -142 -2 -143 -2 -3 -59 c-2 -41 1 -62 10 -67 8 -6 0 -8 -22 -8
-19 0 -29 3 -22 6 8 3 12 26 12 63 0 47 -3 60 -17 63 -10 3 -87 5 -170 6
l-153 2 6 -43 c8 -58 -8 -98 -40 -98 -31 0 -50 51 -40 104 l6 36 -41 0 c-26 0
-41 -5 -42 -12 -3 -44 4 -114 12 -116 18 -7 8 -18 -16 -17 -25 2 -49 15 -27
15 8 0 12 21 12 59 0 65 -7 71 -77 71 l-33 0 0 -64 c0 -42 4 -66 13 -69 6 -2
-1 -8 -16 -12 -28 -7 -54 4 -29 12 8 3 12 25 12 63 0 51 -2 58 -22 64 -51 13
-59 9 -52 -28z"/>
<path d="M10821 11528 c-10 -26 -4 -89 9 -102 5 -5 16 -6 24 -3 23 9 23 112 0
121 -23 9 -24 8 -33 -16z m37 -46 c2 -7 -3 -12 -12 -12 -9 0 -16 7 -16 16 0
17 22 14 28 -4z"/>
<path d="M13277 11543 c-4 -3 -7 -16 -7 -29 0 -17 4 -21 20 -17 14 4 20 0 20
-12 0 -12 -6 -16 -20 -12 -16 4 -20 0 -20 -18 0 -28 12 -38 34 -29 12 4 16 19
16 53 0 54 -22 86 -43 64z"/>
<path d="M2363 11490 c-1 -45 1 -51 10 -33 7 16 7 33 0 55 -10 31 -10 30 -10
-22z"/>
<path d="M10440 11526 c0 -7 9 -16 20 -19 15 -4 20 0 20 14 0 12 -7 19 -20 19
-11 0 -20 -6 -20 -14z"/>
<path d="M7003 11485 c0 -22 2 -30 4 -17 2 12 2 30 0 40 -3 9 -5 -1 -4 -23z"/>
<path d="M10443 11454 c-7 -18 11 -39 26 -30 17 11 13 46 -4 46 -9 0 -18 -7
-22 -16z"/>
<path d="M8681 11204 c0 -11 3 -14 6 -6 3 7 2 16 -1 19 -3 4 -6 -2 -5 -13z"/>
<path d="M7250 10931 c0 -54 4 -70 16 -75 9 -3 170 -6 359 -6 189 0 350 3 359
6 21 8 22 109 2 129 -11 12 -81 14 -375 14 l-361 0 0 -68z"/>
<path d="M8030 10931 c0 -75 5 -81 62 -81 26 0 29 2 18 15 -8 10 -11 36 -8 75
l4 60 -38 0 -38 0 0 -69z"/>
<path d="M10468 10930 c3 -61 6 -70 25 -76 26 -8 421 -7 448 1 16 5 19 17 19
66 0 40 -4 59 -12 59 -9 0 -8 4 2 10 10 6 -70 10 -235 10 l-250 0 3 -70z"/>
<path d="M10980 10932 c0 -77 4 -82 78 -82 l33 0 -3 73 -3 72 -52 3 -53 3 0
-69z"/>
<path d="M11110 10931 c0 -54 4 -70 16 -75 9 -3 55 -6 104 -6 121 0 120 -1
120 77 0 40 -4 62 -10 58 -5 -3 -10 -1 -10 4 0 7 -39 11 -110 11 l-110 0 0
-69z"/>
<path d="M11370 10930 c0 -67 1 -70 26 -76 15 -4 39 -3 53 2 23 8 26 16 29 62
2 40 -1 54 -12 58 -9 3 -13 10 -10 15 3 5 -15 9 -40 9 l-46 0 0 -70z"/>
<path d="M11500 10930 c0 -56 3 -70 15 -70 12 0 15 14 15 70 0 56 -3 70 -15
70 -12 0 -15 -14 -15 -70z"/>
<path d="M2716 10975 c-20 -54 6 -134 33 -101 18 22 10 110 -10 114 -9 2 -19
-4 -23 -13z m30 -61 c-5 -13 -10 -14 -18 -6 -6 6 -8 18 -4 28 5 13 10 14 18 6
6 -6 8 -18 4 -28z"/>
<path d="M5421 10971 c-6 -11 -11 -32 -10 -48 1 -28 1 -28 8 -3 4 14 13 25 21
25 18 0 20 37 3 42 -6 2 -16 -5 -22 -16z"/>
<path d="M8127 10983 c-16 -15 -6 -43 14 -43 14 0 19 -5 17 -17 -4 -23 -25
-28 -31 -6 -3 10 -5 4 -6 -14 -1 -39 17 -53 36 -28 14 20 17 72 7 99 -6 16
-26 21 -37 9z"/>
<path d="M8258 10984 c-5 -4 -8 -16 -8 -28 0 -14 3 -17 11 -9 6 6 9 19 7 28
-1 9 -6 13 -10 9z"/>
<path d="M10441 10964 c0 -11 3 -14 6 -6 3 7 2 16 -1 19 -3 4 -6 -2 -5 -13z"/>
<path d="M10443 10905 c0 -22 2 -30 4 -17 2 12 2 30 0 40 -3 9 -5 -1 -4 -23z"/>
<path d="M8250 10898 c0 -15 5 -30 10 -33 13 -8 13 25 0 45 -8 12 -10 9 -10
-12z"/>
<path d="M5552 10698 c-17 -17 -15 -93 3 -108 19 -16 35 -5 35 25 0 19 -4 22
-21 18 -17 -5 -20 -2 -17 13 2 11 11 18 21 18 13 -2 17 4 15 19 -4 25 -19 32
-36 15z"/>
<path d="M13269 10683 c-11 -29 -5 -88 10 -97 5 -3 9 24 9 59 0 36 -2 65 -4
65 -3 0 -9 -12 -15 -27z"/>
<path d="M8970 10620 c0 -5 5 -10 10 -10 6 0 10 5 10 10 0 6 -4 10 -10 10 -5
0 -10 -4 -10 -10z"/>
<path d="M12921 10394 c0 -11 3 -14 6 -6 3 7 2 16 -1 19 -3 4 -6 -2 -5 -13z"/>
<path d="M12922 10340 c0 -14 2 -19 5 -12 2 6 2 18 0 25 -3 6 -5 1 -5 -13z"/>
<path d="M8655 9941 c2 -28 11 -48 23 -57 11 -7 22 -28 26 -45 8 -39 -9 -105
-29 -113 -24 -9 -20 -107 5 -129 32 -27 27 -147 -6 -147 -12 0 -13 -22 -8
-127 4 -71 11 -129 15 -131 12 -5 11 -32 -1 -32 -16 0 -13 -257 3 -263 10 -4
10 -6 0 -6 -9 -1 -13 -20 -13 -62 0 -60 0 -61 58 -122 32 -34 85 -93 118 -132
32 -38 62 -71 65 -73 4 -2 62 -68 130 -147 68 -80 131 -145 140 -145 9 0 24
-17 34 -39 9 -22 30 -52 46 -67 l29 -28 0 51 c0 32 -5 53 -12 56 -10 4 -9 8 2
16 27 19 30 12 30 -58 0 -39 4 -72 10 -76 5 -3 7 -11 5 -18 -3 -7 21 -40 53
-74 31 -34 129 -145 217 -247 88 -101 163 -185 168 -185 4 -1 7 14 7 32 0 17
6 39 13 49 11 13 12 5 9 -48 -4 -53 -1 -65 13 -70 26 -10 37 10 37 67 0 40 -4
56 -18 67 -12 9 -14 13 -4 10 44 -13 50 -117 10 -150 l-22 -18 57 -59 c32 -34
63 -57 71 -54 8 3 16 -6 21 -25 8 -30 61 -102 74 -102 4 0 5 15 3 33 -7 39 9
85 32 94 11 4 23 -2 36 -18 23 -29 19 -102 -7 -128 -16 -15 -17 -15 -6 6 26
51 5 149 -29 128 -11 -7 -14 -118 -2 -129 4 -4 7 -12 7 -18 0 -6 23 -36 50
-68 44 -51 54 -57 80 -53 26 4 33 1 43 -21 7 -15 12 -39 12 -53 0 -17 21 -50
66 -101 l65 -74 -20 -20 c-17 -15 -21 -31 -21 -88 0 -45 4 -70 13 -73 6 -3 -4
-5 -23 -5 -19 0 -29 2 -22 5 12 5 18 113 6 113 -4 0 -56 -46 -117 -102 -62
-57 -120 -111 -131 -120 -20 -18 -20 -18 2 -18 20 0 22 -5 22 -68 0 -40 5 -73
12 -80 9 -9 4 -12 -25 -12 -20 0 -37 5 -37 10 0 6 5 10 10 10 15 0 12 99 -3
114 -11 11 -19 8 -49 -19 -39 -36 -55 -79 -37 -101 9 -12 6 -14 -22 -14 -28 1
-31 2 -16 11 16 9 24 39 11 39 -8 0 -47 -36 -224 -201 -69 -64 -147 -135 -175
-159 -87 -73 -225 -212 -225 -226 0 -7 6 -15 13 -18 6 -3 -1 -4 -16 -2 -34 4
-43 -3 -268 -210 -96 -88 -184 -169 -195 -179 -19 -15 -21 -25 -17 -75 7 -71
-7 -102 -45 -98 -20 2 -29 11 -36 36 -11 38 -25 37 -44 -2 -8 -15 -24 -31 -36
-35 -28 -11 -172 -150 -168 -163 1 -5 -2 -6 -9 -3 -6 4 -24 -6 -41 -21 l-30
-29 7 -570 c4 -313 9 -572 11 -574 3 -3 22 13 44 34 38 38 51 65 30 65 -5 0
-10 5 -10 10 0 6 9 10 20 10 11 0 20 -5 20 -11 0 -14 53 30 158 129 73 69 83
82 79 108 -3 16 -10 28 -17 26 -6 -1 -10 3 -8 10 3 7 14 14 26 16 19 3 22 -1
22 -27 0 -17 3 -31 7 -31 6 0 76 63 181 163 48 47 52 54 52 98 0 34 -5 51 -16
57 -14 8 -13 10 5 15 19 5 21 1 21 -49 0 -30 3 -54 8 -54 4 0 30 22 57 48 28
26 86 80 130 119 44 39 98 88 121 109 22 22 95 88 161 147 l121 108 -5 39 c-3
22 0 53 7 70 10 25 18 30 39 28 16 -2 30 -12 36 -25 5 -13 13 -23 16 -23 3 0
50 42 103 93 l96 93 0 55 c0 30 -5 60 -11 66 -7 7 -6 12 5 16 16 6 21 -23 16
-95 -1 -16 2 -28 7 -28 4 0 53 41 108 91 55 51 128 117 163 147 60 54 62 58
62 103 0 38 5 51 22 63 20 14 24 14 45 -6 l22 -21 89 81 89 81 -5 54 c-5 64 9
97 41 96 20 -1 20 -2 2 -6 -28 -7 -35 -21 -35 -75 0 -36 4 -48 15 -48 25 0 48
45 40 81 -5 22 -4 29 4 25 6 -4 11 -18 11 -32 0 -23 9 -17 93 57 50 45 124
112 163 148 39 36 123 113 187 170 l117 104 2 51 1 51 4 -43 c4 -36 7 -41 18
-32 8 6 12 17 9 25 -3 7 0 16 7 21 8 4 10 3 5 -4 -9 -15 7 -15 22 0 8 8 8 17
1 30 -6 11 -8 23 -4 26 3 3 8 -4 12 -16 3 -13 9 -22 13 -20 20 7 180 161 175
168 -3 4 2 10 10 14 23 8 21 112 -2 120 -15 6 -15 8 -3 16 32 21 40 11 40 -50
0 -33 3 -60 8 -60 4 1 24 16 46 35 46 41 48 36 -69 160 -66 70 -76 78 -86 63
-13 -22 -52 -23 -70 -2 -7 8 -13 39 -13 69 -1 50 -4 56 -66 126 -36 41 -82 91
-104 112 -21 21 -55 58 -75 81 -58 71 -452 500 -465 508 -17 10 -11 -52 6 -63
8 -6 1 -9 -22 -9 -24 0 -31 3 -21 9 23 15 16 90 -11 120 -13 14 -78 85 -144
156 -66 72 -164 180 -219 240 -54 61 -103 112 -107 113 -4 2 -8 -12 -8 -31 0
-20 6 -38 13 -40 6 -3 -1 -5 -18 -5 -16 0 -24 2 -17 5 7 3 12 23 12 49 0 40
-6 51 -68 122 -38 42 -92 102 -120 132 l-51 55 -1 -37 c0 -21 5 -38 10 -38 6
0 10 -4 10 -10 0 -5 -16 -10 -35 -10 -32 0 -48 14 -26 22 6 2 11 24 12 49 3
52 -2 60 -99 164 -31 34 -73 79 -92 101 l-35 39 -3 -29 c-2 -16 1 -33 7 -39
18 -18 12 -27 -17 -27 -37 0 -45 9 -27 27 8 8 15 31 15 51 0 31 -11 49 -63
109 -82 95 -276 309 -365 403 l-71 75 -1 -42 c0 -31 4 -43 18 -46 9 -3 -1 -5
-23 -6 -32 0 -36 2 -22 10 26 15 23 89 -5 121 -13 14 -61 67 -108 117 -46 51
-90 100 -97 109 -11 15 -12 11 -13 -25 0 -24 5 -43 10 -43 6 0 10 -4 10 -9 0
-12 -59 -11 -66 1 -3 4 2 8 10 8 12 0 16 11 16 48 0 51 -10 68 -92 157 l-37
40 4 -44z m159 -347 c19 -19 22 -114 4 -132 -19 -19 -56 -14 -69 9 -14 28 -6
118 12 130 21 13 36 11 53 -7z m106 -63 c0 -58 3 -70 18 -74 9 -3 -1 -5 -23
-6 -32 0 -36 2 -22 10 14 8 17 22 16 65 -2 38 -6 54 -16 54 -7 0 -13 5 -13 10
0 6 9 10 20 10 18 0 20 -7 20 -69z m-130 -221 c0 -5 -4 -10 -10 -10 -5 0 -10
5 -10 10 0 6 5 10 10 10 6 0 10 -4 10 -10z m13 -132 c7 -4 -4 -7 -23 -7 -19 1
-27 3 -17 6 13 3 17 17 19 61 l2 57 3 -55 c3 -30 10 -58 16 -62z m-12 -140 c0
-7 0 -38 -1 -70 -1 -45 2 -58 17 -67 15 -9 12 -10 -17 -11 -22 0 -30 3 -22 9
19 12 12 127 -7 123 -12 -3 -12 0 -1 12 15 19 30 21 31 4z m158 -19 c6 -18 11
-42 11 -55 0 -27 -20 -74 -31 -74 -4 0 -1 14 8 31 24 48 3 126 -30 113 -17 -6
-21 -29 -19 -89 2 -30 2 -30 -9 -5 -11 27 -5 75 12 97 20 23 46 15 58 -18z
m101 -43 c0 -50 4 -76 13 -79 6 -3 -4 -6 -23 -6 -27 0 -31 2 -18 9 12 8 16 23
14 67 -1 39 -6 57 -14 56 -16 -4 -15 14 1 20 25 11 27 5 27 -67z m149 60 c30
-36 21 -129 -14 -142 -9 -4 -24 1 -35 11 -15 13 -18 28 -16 66 5 69 36 100 65
65z m-271 -67 c-2 -6 -8 -10 -13 -10 -5 0 -11 4 -13 10 -2 6 4 11 13 11 9 0
15 -5 13 -11z m-23 -69 c3 -6 -1 -7 -9 -4 -18 7 -21 14 -7 14 6 0 13 -4 16
-10z m147 -215 c3 -70 2 -75 -17 -75 -14 0 -16 3 -7 9 18 11 13 127 -5 124 -7
-2 -13 2 -13 7 0 6 9 10 19 10 17 0 20 -9 23 -75z m518 -269 c0 -50 4 -76 13
-79 6 -3 -4 -6 -22 -6 -27 -1 -32 2 -23 11 16 16 16 115 0 120 -15 5 -1 28 18
28 11 0 14 -16 14 -74z m-360 28 c17 -50 -1 -114 -32 -114 -29 0 -47 28 -48
73 0 51 15 77 45 77 18 0 26 -8 35 -36z m230 -308 c0 -50 4 -76 13 -79 6 -3
-4 -5 -23 -5 -19 0 -29 2 -22 5 15 6 17 119 1 129 -8 4 -7 9 2 15 26 16 29 9
29 -65z m107 53 c-23 -13 -24 -101 -2 -119 20 -17 32 -5 44 45 l9 40 1 -36 c2
-74 -54 -94 -76 -27 -8 25 -9 47 -3 69 9 32 29 53 40 43 2 -3 -3 -10 -13 -15z
m153 -47 c0 -40 5 -73 12 -80 9 -9 3 -12 -27 -12 -32 1 -37 3 -22 11 13 8 17
23 17 64 0 30 -5 57 -11 61 -8 4 -7 9 2 15 26 16 29 9 29 -59z m155 19 c17
-78 -28 -140 -67 -91 -28 35 -20 109 15 132 18 11 45 -10 52 -41z m-262 19 c3
-11 3 -20 1 -20 -2 0 -8 9 -14 20 -6 11 -7 20 -2 20 6 0 12 -9 15 -20z m487
-49 c0 -46 4 -71 13 -74 6 -3 -1 -6 -17 -6 -23 -1 -27 2 -18 11 7 7 12 35 12
63 0 28 -5 56 -12 63 -9 9 -8 12 5 12 14 0 17 -11 17 -69z m-510 -6 c0 -8 -4
-15 -10 -15 -5 0 -10 7 -10 15 0 8 5 15 10 15 6 0 10 -7 10 -15z m130 -263 c0
-39 5 -73 12 -80 18 -18 4 -24 -33 -13 -19 5 -28 10 -21 10 16 1 17 118 0 123
-17 6 0 28 23 28 17 0 19 -7 19 -68z m150 42 c13 -33 13 -90 0 -115 -6 -11
-21 -19 -35 -19 -30 0 -45 26 -45 77 0 72 59 114 80 57z m130 7 c5 -11 10 -38
10 -61 0 -54 -15 -80 -45 -80 -30 0 -45 26 -45 80 0 54 15 80 45 80 14 0 29
-8 35 -19z m110 -56 c0 -46 4 -75 11 -75 5 0 7 -5 4 -10 -4 -6 -17 -9 -30 -7
-25 3 -47 17 -27 17 16 0 16 117 0 122 -17 6 0 28 23 28 17 0 19 -7 19 -75z
m120 1 c0 -50 4 -76 13 -79 6 -3 -4 -5 -23 -5 -19 0 -29 2 -22 5 15 6 17 119
1 129 -8 4 -7 9 2 15 26 16 29 9 29 -65z m-256 -279 c2 -35 6 -70 10 -76 5 -7
-4 -11 -26 -11 -27 1 -30 2 -15 11 21 12 25 114 5 122 -10 4 -9 8 2 16 8 5 16
8 18 7 2 -2 4 -33 6 -69z m268 -74 c8 -10 3 -13 -23 -12 -19 0 -28 3 -21 6 15
6 17 123 2 123 -17 0 -11 18 8 22 14 3 17 -6 20 -61 2 -36 8 -71 14 -78z m142
125 c33 -47 10 -138 -34 -138 -25 0 -40 29 -40 80 0 75 40 106 74 58z m134 -8
c17 -34 8 -98 -17 -124 l-21 -20 -22 21 c-26 26 -31 111 -8 138 18 22 52 15
68 -15z m102 -44 c0 -50 4 -76 13 -79 6 -3 -4 -5 -23 -5 -19 0 -29 2 -22 5 7
3 12 26 12 63 0 37 -5 60 -12 63 -10 4 -9 8 2 16 27 19 30 12 30 -63z m125 4
c0 -52 4 -73 15 -80 11 -7 6 -10 -20 -9 -19 0 -29 3 -22 6 16 6 17 119 0 129
-8 5 -6 10 8 15 10 4 19 8 19 8 0 1 0 -31 0 -69z m-674 23 c-9 -53 -2 -93 16
-100 22 -8 33 15 33 70 0 30 4 46 10 42 17 -10 11 -78 -9 -104 -35 -46 -79 7
-66 79 11 60 26 71 16 13z m-226 -43 c-5 -8 -11 -8 -17 -2 -6 6 -7 16 -3 22 5
8 11 8 17 2 6 -6 7 -16 3 -22z m263 9 c-2 -6 -8 -10 -13 -10 -5 0 -11 4 -13
10 -2 6 4 11 13 11 9 0 15 -5 13 -11z m122 -269 c0 -55 3 -71 18 -79 13 -8 9
-10 -23 -10 -22 0 -34 3 -27 6 15 6 17 119 1 129 -8 4 -7 9 2 15 26 16 29 9
29 -61z m279 57 c19 -23 24 -73 11 -111 -10 -30 -16 -36 -40 -36 -26 0 -31 5
-40 40 -11 40 -5 85 13 108 13 16 42 15 56 -1z m111 -61 c0 -50 4 -76 13 -79
6 -3 -4 -5 -23 -5 -19 0 -29 2 -22 5 15 6 17 119 1 129 -8 4 -7 9 2 15 26 16
29 9 29 -65z m128 -2 c2 -39 8 -72 15 -76 7 -4 -3 -8 -22 -8 -27 0 -32 3 -23
12 15 15 16 114 2 123 -13 8 -2 27 13 22 7 -2 13 -32 15 -73z m136 70 c9 -3
16 -10 16 -15 0 -6 -8 -5 -19 0 -36 20 -55 -32 -37 -102 6 -27 29 -36 41 -16
4 5 10 31 15 57 l8 47 1 -41 c1 -53 -28 -95 -56 -78 -29 17 -38 73 -20 117 16
38 23 42 51 31z m-776 -75 c-2 -6 -8 -10 -13 -10 -5 0 -11 4 -13 10 -2 6 4 11
13 11 9 0 15 -5 13 -11z m770 0 c-2 -6 -8 -10 -13 -10 -5 0 -11 4 -13 10 -2 6
4 11 13 11 9 0 15 -5 13 -11z m-490 -224 c26 -56 4 -135 -37 -135 -30 0 -41
22 -41 80 0 31 5 61 12 68 21 21 54 14 66 -13z m253 9 c17 -21 18 -107 0 -127
-7 -10 -24 -17 -37 -17 -33 0 -50 59 -35 118 10 34 16 42 35 42 13 0 29 -7 37
-16z m109 -58 c0 -50 4 -76 13 -79 6 -3 -4 -6 -22 -6 -27 -1 -32 2 -23 11 14
14 16 114 2 123 -17 10 -11 25 10 25 18 0 20 -7 20 -74z m120 4 c0 -55 3 -71
18 -79 14 -8 10 -10 -18 -10 -19 0 -29 3 -22 6 15 6 17 133 1 133 -5 0 -7 5
-4 10 16 26 25 4 25 -60z m260 2 c0 -40 5 -73 12 -80 9 -9 6 -12 -17 -12 -23
0 -26 3 -17 12 18 18 16 117 -3 124 -18 7 -10 24 11 24 11 0 14 -15 14 -68z
m132 5 c-3 -45 0 -63 14 -78 17 -18 16 -19 -19 -19 -21 0 -37 5 -37 10 0 6 5
10 10 10 6 0 10 27 10 61 0 37 -4 58 -10 54 -5 -3 -10 1 -10 10 0 11 7 15 23
13 20 -3 22 -7 19 -61z m-772 -291 c0 -50 4 -76 13 -79 6 -3 -4 -5 -23 -5 -19
0 -29 2 -22 5 8 3 12 27 12 69 0 44 -4 64 -12 64 -9 0 -8 4 2 10 27 17 30 11
30 -64z m510 0 c0 -63 3 -75 18 -79 9 -3 -1 -5 -23 -5 -22 0 -32 2 -22 5 14 4
17 16 17 69 0 54 -3 64 -17 64 -15 0 -16 2 -3 10 27 17 30 11 30 -64z m128 17
c-1 -51 -2 -53 -5 -15 -3 28 -10 45 -20 49 -14 6 -14 7 3 14 10 4 20 8 22 8 1
1 1 -25 0 -56z m262 -17 c0 -50 4 -76 13 -79 6 -3 -4 -5 -23 -5 -19 0 -29 2
-22 5 8 3 12 27 12 69 0 44 -4 64 -12 64 -9 0 -8 4 2 10 27 17 30 11 30 -64z
m-246 -78 c6 -4 -1 -8 -17 -8 -25 0 -26 2 -15 20 9 13 14 16 17 8 2 -7 9 -16
15 -20z m-884 -147 c13 -25 13 -82 0 -116 -8 -21 -16 -26 -38 -23 -22 2 -30
11 -42 45 -13 38 -12 46 3 78 19 40 59 49 77 16z m119 10 c22 -14 26 -96 7
-126 -34 -52 -76 -25 -76 48 0 75 26 105 69 78z m111 -59 c0 -40 5 -73 12 -80
9 -9 4 -12 -22 -11 -19 0 -29 3 -22 6 15 6 17 119 1 129 -8 4 -7 9 2 15 26 16
29 9 29 -59z m130 -6 c0 -50 4 -76 13 -79 6 -3 -4 -5 -23 -5 -19 0 -29 2 -22
5 15 6 17 119 1 129 -8 4 -7 9 2 15 26 16 29 9 29 -65z m139 65 c8 -5 16 -32
19 -61 3 -38 2 -51 -7 -46 -6 4 -11 27 -11 51 0 48 -13 64 -35 45 -10 -8 -15
-31 -15 -65 0 -57 11 -69 45 -52 19 9 19 9 2 -9 -13 -14 -21 -16 -34 -8 -45
28 -32 147 17 153 3 0 11 -3 19 -8z m119 -67 c-1 -46 3 -69 13 -75 10 -6 3 -9
-20 -9 -27 0 -32 3 -23 12 15 15 16 114 1 124 -8 4 -7 9 2 15 22 13 27 1 27
-67z m107 60 c-16 -12 -20 -26 -19 -65 1 -52 18 -77 40 -58 18 14 24 63 14
100 -7 22 -6 29 1 22 16 -16 22 -75 10 -106 -26 -68 -87 -28 -78 52 4 39 26
72 46 71 3 0 -3 -7 -14 -16z m259 2 c-10 -8 -21 -12 -24 -10 -5 6 21 24 34 24
6 0 1 -6 -10 -14z m-499 -76 c-5 -8 -11 -8 -17 -2 -6 6 -7 16 -3 22 5 8 11 8
17 2 6 -6 7 -16 3 -22z m260 0 c-5 -8 -11 -8 -17 -2 -6 6 -7 16 -3 22 5 8 11
8 17 2 6 -6 7 -16 3 -22z m-1034 -202 c0 -7 1 -39 1 -71 1 -42 5 -60 17 -67
12 -7 6 -9 -24 -9 -32 0 -36 2 -22 10 24 14 25 117 1 126 -13 5 -13 7 -2 14
19 12 28 11 29 -3z m154 -14 c31 -48 2 -146 -39 -131 -49 19 -40 157 9 157 7
0 20 -12 30 -26z m365 -44 c0 -40 4 -70 10 -70 6 0 10 -4 10 -10 0 -5 -17 -10
-37 -10 -34 1 -36 2 -20 14 23 18 25 111 1 120 -20 8 -9 26 17 26 17 0 19 -7
19 -70z m274 48 c34 -48 5 -151 -37 -135 -24 9 -43 81 -29 109 9 20 11 16 11
-28 1 -34 6 -56 16 -64 23 -19 34 -2 36 56 3 60 -5 77 -33 68 -14 -4 -18 -2
-14 5 11 18 34 13 50 -11z m-16 -59 c-2 -6 -8 -10 -13 -10 -5 0 -11 4 -13 10
-2 6 4 11 13 11 9 0 15 -5 13 -11z m-1138 -228 c6 -16 10 -44 7 -62 -4 -32 -4
-32 -5 7 -1 22 -9 49 -17 60 -15 19 -15 19 -30 0 -8 -11 -15 -39 -15 -62 0
-50 21 -74 48 -53 16 12 16 12 1 -4 -33 -37 -63 3 -61 77 3 68 49 92 72 37z
m258 -1 c23 -45 1 -130 -34 -130 -18 0 -44 52 -44 87 0 36 27 75 48 71 9 -2
22 -14 30 -28z m103 13 c0 -10 1 -38 1 -63 0 -24 4 -52 9 -62 8 -15 6 -18 -16
-18 -22 0 -24 3 -15 19 13 25 13 108 0 116 -15 9 -12 25 5 25 8 0 15 -8 16
-17z m129 -51 c0 -40 5 -73 12 -80 9 -9 6 -12 -16 -12 -18 0 -25 4 -20 11 9
16 11 120 2 126 -14 8 -9 23 7 23 12 0 15 -14 15 -68z m156 51 c16 -21 18 -97
4 -124 -6 -11 -21 -19 -36 -19 -46 0 -68 102 -32 148 15 18 49 15 64 -5z m104
-51 c0 -40 5 -73 12 -80 9 -9 4 -12 -22 -11 -19 0 -29 3 -22 6 15 6 17 133 1
133 -5 0 -7 5 -4 10 3 6 13 10 21 10 11 0 14 -15 14 -68z m150 49 c5 -11 10
-38 10 -61 0 -51 -15 -80 -40 -80 -25 0 -40 29 -40 80 0 51 15 80 40 80 11 0
24 -9 30 -19z m-918 -56 c0 -5 -5 -11 -11 -13 -6 -2 -11 4 -11 13 0 9 5 15 11
13 6 -2 11 -8 11 -13z m1022 -10 c-4 -8 -10 -12 -15 -9 -14 8 -10 24 6 24 9 0
12 -6 9 -15z m-1012 -202 c13 -11 18 -30 18 -65 0 -58 -13 -88 -40 -88 -48 0
-67 96 -29 144 24 31 27 31 51 9z m508 -69 c0 -45 4 -74 11 -74 5 0 7 -4 4
-10 -8 -13 -52 -13 -60 -1 -3 5 -1 12 5 16 15 9 13 112 -2 119 -9 3 -8 9 6 20
10 8 23 13 27 10 5 -3 9 -39 9 -80z m-910 2 c0 -50 4 -76 13 -79 6 -3 -4 -6
-23 -6 -28 0 -32 2 -17 10 24 14 25 117 1 126 -13 5 -13 7 -2 14 25 16 28 9
28 -65z m130 6 c0 -40 5 -73 12 -80 9 -9 4 -12 -22 -11 -19 0 -29 3 -22 6 16
6 17 120 0 125 -15 5 -1 28 18 28 11 0 14 -15 14 -68z m151 52 c7 -9 13 -37
13 -64 0 -52 -16 -80 -44 -80 -28 0 -44 28 -44 80 0 52 16 80 44 80 10 0 23
-7 31 -16z m492 2 c3 -8 3 -37 1 -66 -3 -32 0 -57 7 -66 9 -11 6 -14 -17 -14
-22 0 -25 3 -16 12 15 15 16 114 2 123 -11 7 -4 25 10 25 4 0 10 -6 13 -14z
m281 -8 c34 -49 8 -143 -37 -136 -15 2 -26 15 -36 43 -26 78 32 152 73 93z
m-1314 -328 c0 -55 3 -71 18 -79 13 -8 9 -10 -23 -10 -32 0 -36 2 -22 10 23
13 25 117 2 125 -18 7 -10 24 11 24 11 0 14 -16 14 -70z m130 2 c0 -40 5 -73
12 -80 9 -9 5 -12 -21 -12 -30 0 -31 1 -16 16 20 21 18 113 -3 121 -11 5 -11
7 0 14 25 16 28 9 28 -59z m120 64 c0 -2 -8 -10 -17 -17 -16 -13 -17 -12 -4 4
13 16 21 21 21 13z m140 -64 c0 -40 5 -73 12 -80 9 -9 4 -12 -22 -11 -19 0
-29 3 -22 6 15 6 17 133 1 133 -5 0 -7 5 -4 10 3 6 13 10 21 10 11 0 14 -15
14 -68z m160 -1 c0 -50 -9 -79 -27 -86 -25 -9 -53 24 -51 59 l1 31 4 -32 c2
-17 11 -37 20 -44 13 -11 17 -10 29 6 16 22 19 101 4 110 -5 3 -10 12 -10 18
1 30 30 -31 30 -62z m360 1 c0 -40 5 -73 12 -80 9 -9 3 -12 -27 -12 -30 0 -36
3 -27 12 16 16 16 115 0 120 -17 6 0 28 23 28 17 0 19 -7 19 -68z m-619 31
c14 -36 0 -102 -24 -117 -27 -16 -57 24 -57 77 0 22 3 37 8 33 4 -4 7 -25 8
-47 0 -48 16 -68 39 -49 18 15 21 100 3 118 -9 9 -9 12 0 12 7 0 17 -12 23
-27z m196 2 c-7 -13 -14 -20 -15 -14 -2 5 2 16 8 24 18 21 20 18 7 -10z m-217
-46 c0 -5 -7 -9 -15 -9 -15 0 -20 12 -9 23 8 8 24 -1 24 -14z m249 -8 c-15 -5
-22 6 -14 19 6 9 10 9 16 -1 5 -8 4 -15 -2 -18z m-769 -261 c0 -40 4 -70 10
-70 6 0 10 -4 10 -10 0 -5 -16 -10 -35 -10 -19 0 -35 5 -35 10 0 6 6 10 13 10
17 0 14 113 -2 118 -21 7 -11 22 14 22 24 0 25 -2 25 -70z m132 -77 c8 -10 3
-13 -23 -13 -29 1 -31 2 -16 11 15 9 18 22 17 72 -2 87 3 96 7 12 2 -38 9 -75
15 -82z m638 81 c0 -52 4 -70 18 -80 15 -12 13 -13 -20 -14 -21 0 -38 5 -38
10 0 6 5 10 10 10 6 0 10 24 10 54 0 30 -4 58 -10 61 -17 10 -11 25 10 25 18
0 20 -7 20 -66z m150 47 c14 -28 13 -104 -3 -125 -17 -24 -48 -17 -65 14 -14
28 -10 93 8 115 17 21 47 19 60 -4z m-1020 -295 c13 -40 5 -100 -16 -117 -8
-6 -25 -8 -38 -5 -30 7 -43 68 -26 121 10 29 16 35 40 35 24 0 30 -6 40 -34z
m100 -40 c0 -50 4 -76 13 -79 6 -3 -4 -5 -23 -5 -19 0 -29 2 -22 5 15 6 17
133 1 133 -5 0 -7 5 -4 10 3 6 13 10 21 10 11 0 14 -16 14 -74z m121 62 c0 -7
0 -38 -1 -70 -1 -43 3 -58 15 -66 13 -7 10 -9 -15 -10 -25 -1 -30 2 -21 11 6
6 11 37 11 69 0 49 -3 58 -17 58 -15 0 -16 2 -3 10 20 13 30 12 31 -2z m157
-13 c28 -62 -1 -140 -48 -128 -31 8 -36 125 -6 145 21 15 43 8 54 -17z m102
-43 c0 -40 5 -73 12 -80 9 -9 4 -12 -22 -12 -29 1 -32 2 -17 11 23 13 25 117
2 125 -18 7 -10 24 11 24 11 0 14 -15 14 -68z m147 56 c28 -35 20 -138 -10
-138 -8 0 -7 4 1 12 18 18 16 117 -3 124 -28 11 -42 -13 -39 -66 1 -28 6 -57
11 -63 4 -7 0 -4 -9 6 -12 12 -17 34 -17 60 2 61 40 98 66 65z m-9 -66 c2 -7
-3 -12 -12 -12 -9 0 -16 7 -16 16 0 17 22 14 28 -4z m-649 -274 c0 -46 5 -74
13 -80 8 -5 -1 -7 -22 -7 -19 0 -29 3 -22 6 8 3 12 27 12 69 0 44 -4 64 -12
64 -9 0 -8 4 2 10 26 17 28 12 29 -62z m1 -278 c0 -40 4 -70 10 -70 6 0 10 -4
10 -10 0 -5 -13 -10 -30 -10 -16 0 -30 5 -30 10 0 6 5 10 10 10 6 0 10 27 10
60 0 50 -3 60 -17 60 -15 0 -16 2 -3 10 33 22 40 12 40 -60z m150 51 c5 -11
10 -38 10 -61 0 -51 -15 -80 -40 -80 -11 0 -24 9 -30 19 -14 27 -13 114 2 129
18 18 46 14 58 -7z"/>
<path d="M8771 9576 c-19 -22 -10 -100 11 -104 26 -5 42 42 28 84 -13 37 -21
41 -39 20z m29 -52 c0 -8 -7 -14 -15 -14 -15 0 -21 21 -9 33 10 9 24 -2 24
-19z"/>
<path d="M9155 9030 c-11 -18 -9 -110 2 -121 7 -7 19 -9 27 -6 23 9 23 122 0
131 -21 8 -22 8 -29 -4z m33 -62 c-6 -18 -28 -21 -28 -4 0 9 7 16 16 16 9 0
14 -5 12 -12z"/>
<path d="M9150 8421 c0 -28 -1 -54 -1 -58 -1 -4 6 -12 15 -18 24 -15 37 10 34
70 -3 43 -6 50 -25 53 -21 3 -23 0 -23 -47z m38 -13 c-6 -18 -28 -21 -28 -4 0
9 7 16 16 16 9 0 14 -5 12 -12z"/>
<path d="M9796 8182 c-3 -5 -6 -30 -7 -56 -3 -47 11 -70 36 -63 12 4 24 70 17
103 -4 23 -35 34 -46 16z m29 -62 c-5 -8 -11 -8 -17 -2 -6 6 -7 16 -3 22 5 8
11 8 17 2 6 -6 7 -16 3 -22z"/>
<path d="M9796 7895 c-10 -28 -7 -80 7 -99 12 -16 14 -16 26 -3 18 23 11 111
-10 115 -9 2 -19 -4 -23 -13z m34 -45 c0 -11 -7 -20 -15 -20 -8 0 -15 9 -15
20 0 11 7 20 15 20 8 0 15 -9 15 -20z"/>
<path d="M9924 7896 c-3 -7 -4 -33 -2 -57 2 -36 7 -44 23 -44 15 0 21 8 23 34
2 19 1 44 -2 57 -7 26 -33 32 -42 10z m36 -46 c0 -11 -7 -20 -15 -20 -8 0 -15
9 -15 20 0 11 7 20 15 20 8 0 15 -9 15 -20z"/>
<path d="M10309 7603 c-12 -33 1 -98 21 -98 19 0 33 50 26 91 -8 41 -32 45
-47 7z m37 -24 c10 -17 -13 -36 -27 -22 -12 12 -4 33 11 33 5 0 12 -5 16 -11z"/>
<path d="M10439 7607 c-17 -37 -3 -97 21 -97 14 0 20 7 20 24 0 20 -4 23 -21
19 -17 -5 -20 -2 -17 13 2 11 11 18 21 18 13 -2 17 4 15 19 -4 30 -26 32 -39
4z"/>
<path d="M10435 7321 c-10 -46 3 -91 26 -91 13 0 19 7 19 24 0 20 -4 23 -21
19 -17 -5 -20 -2 -17 13 2 11 11 18 21 18 24 -2 19 39 -5 44 -11 2 -18 -6 -23
-27z"/>
<path d="M10317 7063 c-13 -13 -7 -43 7 -37 18 7 31 -15 18 -28 -8 -8 -15 -8
-25 0 -11 9 -13 6 -9 -18 6 -44 38 -41 46 4 11 59 -11 106 -37 79z"/>
<path d="M10564 7046 c-10 -42 4 -98 24 -94 24 5 29 46 5 44 -10 0 -18 6 -18
14 0 8 8 14 18 14 13 -2 17 4 15 19 -5 32 -36 34 -44 3z"/>
<path d="M10192 6508 c-21 -21 -15 -47 9 -41 17 5 20 2 17 -13 -2 -11 -11 -18
-21 -18 -24 2 -19 -39 5 -44 20 -4 33 44 23 88 -8 35 -18 43 -33 28z"/>
<path d="M10317 6503 c-14 -13 -7 -31 14 -36 24 -7 20 -33 -5 -31 -11 1 -16
-6 -16 -22 0 -37 36 -32 44 6 11 58 -12 109 -37 83z"/>
<path d="M10055 6230 c-10 -16 -8 -111 2 -121 5 -5 17 -7 26 -3 13 5 17 19 17
58 0 60 -26 97 -45 66z m33 -61 c-2 -6 -8 -10 -13 -10 -5 0 -11 4 -13 10 -2 6
4 11 13 11 9 0 15 -5 13 -11z"/>
<path d="M9796 5944 c-21 -56 7 -145 36 -116 12 12 14 104 3 122 -9 15 -32 12
-39 -6z m34 -54 c0 -5 -7 -10 -15 -10 -8 0 -15 5 -15 10 0 6 7 10 15 10 8 0
15 -4 15 -10z"/>
<path d="M10187 5943 c-4 -3 -7 -14 -7 -24 0 -12 6 -16 21 -12 17 5 20 2 17
-13 -2 -11 -11 -18 -21 -18 -24 2 -19 -40 5 -44 22 -4 33 35 24 83 -6 32 -23
44 -39 28z"/>
<path d="M10440 5941 c-16 -30 -12 -88 7 -106 16 -16 17 -16 30 1 15 21 17 63
3 98 -11 31 -25 33 -40 7z m30 -52 c0 -5 -7 -9 -15 -9 -15 0 -20 12 -9 23 8 8
24 -1 24 -14z"/>
<path d="M9540 5656 c0 -8 -3 -23 -6 -33 -5 -14 -4 -15 4 -4 12 17 46 7 39
-12 -2 -6 -12 -11 -21 -11 -12 2 -16 -4 -14 -19 5 -31 27 -32 38 -2 15 40 3
95 -21 95 -11 0 -19 -6 -19 -14z"/>
<path d="M9410 5646 c0 -20 4 -23 21 -19 17 5 20 2 17 -13 -2 -11 -11 -18 -21
-18 -24 2 -19 -39 5 -44 20 -4 33 44 23 88 -8 38 -45 43 -45 6z"/>
<path d="M10187 5673 c-10 -10 -8 -106 3 -123 23 -36 50 53 31 103 -10 27 -21
33 -34 20z m31 -60 c-5 -25 -28 -28 -28 -4 0 12 6 21 16 21 9 0 14 -7 12 -17z"/>
<path d="M9536 5084 c-10 -40 3 -94 24 -94 12 0 20 11 24 34 9 47 -2 86 -24
86 -11 0 -20 -10 -24 -26z m40 -25 c10 -17 -13 -36 -27 -22 -12 12 -4 33 11
33 5 0 12 -5 16 -11z"/>
<path d="M8506 4814 c-11 -30 -6 -82 10 -95 14 -11 18 -10 30 6 26 35 15 105
-16 105 -10 0 -21 -7 -24 -16z m38 -32 c8 -13 -11 -35 -23 -28 -16 10 -14 36
3 36 8 0 17 -4 20 -8z"/>
<path d="M8895 4830 c-12 -19 -7 -100 6 -116 12 -14 15 -14 31 6 20 25 23 56
8 94 -10 26 -34 34 -45 16z m30 -70 c-6 -9 -9 -9 -16 1 -10 17 0 34 13 21 6
-6 7 -16 3 -22z"/>
<path d="M8642 4268 c-18 -18 -15 -103 4 -119 14 -11 18 -10 30 6 25 34 14
125 -16 125 -3 0 -11 -5 -18 -12z m28 -58 c0 -5 -4 -10 -10 -10 -5 0 -10 5
-10 10 0 6 5 10 10 10 6 0 10 -4 10 -10z"/>
<path d="M6450 9861 c-28 -53 0 -140 35 -111 24 20 20 106 -5 120 -15 8 -21 6
-30 -9z m30 -57 c0 -14 -12 -19 -23 -8 -9 9 4 35 14 28 5 -3 9 -12 9 -20z"/>
<path d="M8663 9810 c0 -55 2 -60 14 -44 7 10 13 30 13 44 0 14 -6 34 -13 44
-12 16 -14 11 -14 -44z"/>
<path d="M5554 9578 c-4 -6 1 -17 12 -25 20 -15 30 -4 20 22 -6 18 -22 19 -32
3z"/>
<path d="M8663 9530 c0 -55 2 -60 14 -44 7 10 13 30 13 44 0 14 -6 34 -13 44
-12 16 -14 11 -14 -44z"/>
<path d="M2228 9569 c-3 -8 -1 -22 4 -32 7 -13 3 -19 -16 -27 -27 -10 -27 -34
0 -44 27 -10 46 69 25 103 -7 11 -9 11 -13 0z"/>
<path d="M13655 9279 c-11 -35 3 -89 24 -89 16 0 31 18 31 36 0 2 -12 4 -26 4
-19 0 -25 4 -22 18 2 9 11 16 21 16 13 -1 14 2 6 17 -13 25 -26 24 -34 -2z"/>
<path d="M14980 9180 c0 -5 5 -10 10 -10 6 0 10 5 10 10 0 6 -4 10 -10 10 -5
0 -10 -4 -10 -10z"/>
<path d="M1817 8463 c-4 -3 -7 -28 -7 -53 0 -56 22 -84 39 -51 27 49 0 136
-32 104z m33 -59 c0 -8 -7 -14 -15 -14 -15 0 -21 21 -9 33 10 9 24 -2 24 -19z"/>
<path d="M7351 8444 c0 -11 3 -14 6 -6 3 7 2 16 -1 19 -3 4 -6 -2 -5 -13z"/>
<path d="M13672 8437 c-22 -24 -27 -43 -16 -71 12 -32 54 -13 54 25 0 5 -11 7
-25 3 -19 -5 -25 -2 -25 9 0 22 18 31 35 17 12 -10 15 -10 15 1 -1 33 -16 40
-38 16z"/>
<path d="M1687 8183 c-4 -3 -7 -18 -7 -32 0 -19 3 -22 9 -12 12 19 34 3 28
-20 -3 -11 -1 -19 4 -19 10 0 12 50 3 74 -6 16 -26 21 -37 9z"/>
<path d="M13440 8141 c0 -10 -7 -24 -15 -31 -23 -19 -19 -49 5 -43 16 4 20 14
20 49 0 24 -2 44 -5 44 -3 0 -5 -8 -5 -19z"/>
<path d="M13655 7880 c-10 -44 3 -90 25 -90 11 0 19 9 22 25 5 22 3 24 -19 19
-21 -6 -24 -3 -21 12 3 13 11 18 27 16 18 -2 22 2 17 14 -3 8 -6 20 -6 25 0 5
-9 9 -19 9 -13 0 -21 -9 -26 -30z"/>
<path d="M14980 7770 c0 -5 5 -10 10 -10 6 0 10 5 10 10 0 6 -4 10 -10 10 -5
0 -10 -4 -10 -10z"/>
<path d="M13276 7564 c-9 -23 -7 -66 2 -60 8 5 16 76 8 76 -2 0 -7 -7 -10 -16z"/>
<path d="M8970 7520 c0 -5 5 -10 10 -10 6 0 10 5 10 10 0 6 -4 10 -10 10 -5 0
-10 -4 -10 -10z"/>
<path d="M2095 7335 c4 -16 11 -46 15 -65 7 -33 8 -32 9 16 1 37 -4 55 -16 65
-15 13 -16 11 -8 -16z"/>
<path d="M5630 7280 c0 -5 5 -10 10 -10 6 0 10 5 10 10 0 6 -4 10 -10 10 -5 0
-10 -4 -10 -10z"/>
<path d="M10190 7062 c0 -5 10 -17 22 -28 20 -18 21 -18 15 -1 -4 10 -7 23 -7
28 0 5 -7 9 -15 9 -8 0 -15 -4 -15 -8z"/>
<path d="M8463 7023 l-23 -4 0 -238 c0 -131 -3 -434 -7 -674 l-6 -437 32 0
c17 0 40 6 51 12 16 10 24 10 40 0 11 -6 24 -12 30 -12 7 0 10 227 10 680 l0
680 -52 -1 c-29 -1 -63 -4 -75 -6z m77 -287 c0 -50 4 -76 13 -79 6 -3 -4 -6
-23 -6 -20 0 -30 3 -23 7 17 11 20 125 3 130 -10 4 -9 6 1 13 26 16 29 9 29
-65z"/>
<path d="M6593 7012 c-79 -3 -83 -4 -83 -26 0 -38 -49 -72 -66 -45 -4 7 0 9
14 5 15 -5 24 -1 31 13 19 34 13 50 -16 48 -21 -1 -30 -9 -34 -27 l-7 -25 -1
28 c-1 25 -4 27 -41 27 -39 0 -40 -1 -40 -34 0 -19 6 -37 13 -39 6 -3 -4 -6
-22 -6 -27 -1 -32 2 -23 11 7 7 12 25 12 40 0 27 -1 28 -55 28 l-55 0 0 -34
c0 -19 6 -37 13 -39 6 -3 -4 -5 -23 -5 -19 0 -29 2 -22 5 6 2 12 20 12 39 0
32 -2 34 -35 34 -30 0 -35 -4 -35 -22 -1 -47 -49 -75 -78 -46 -7 7 -12 25 -12
40 l0 28 -145 0 -145 0 0 -80 0 -80 460 0 460 0 0 -490 0 -491 26 -24 c15 -14
31 -22 36 -19 20 13 28 56 17 96 -8 32 -14 39 -30 35 -10 -3 -17 -1 -13 4 3 5
11 9 19 9 43 0 62 -115 25 -147 -20 -17 -19 -18 27 -65 26 -26 50 -48 53 -48
5 0 7 632 2 680 -1 8 0 32 3 52 2 21 0 40 -5 43 -6 4 -11 -11 -11 -32 -2 -32
-3 -33 -6 -9 -3 15 1 42 8 58 13 31 18 413 5 425 -3 3 -1 12 5 19 6 7 9 25 7
41 l-3 28 -80 0 c-44 0 -117 -1 -162 -3z m143 -276 c1 -46 6 -71 15 -77 9 -6
0 -8 -26 -8 -22 1 -32 3 -22 6 24 6 25 120 1 130 -13 5 -13 7 -2 14 25 16 33
2 34 -65z m2 -282 c2 -39 8 -72 15 -76 7 -4 -5 -8 -27 -8 -35 0 -38 2 -22 13
13 10 17 24 14 67 -2 37 -7 54 -15 53 -7 -2 -13 1 -13 6 0 11 20 20 35 17 6
-1 11 -34 13 -72z m-7 -277 c1 -50 6 -70 18 -77 12 -7 8 -9 -18 -10 -27 0 -32
3 -23 12 7 7 12 36 12 65 0 41 -4 55 -17 60 -15 6 -14 7 3 13 10 4 20 7 21 6
1 -1 3 -32 4 -69z m9 -287 c0 -5 -7 -10 -16 -10 -8 0 -12 5 -9 10 3 6 10 10
16 10 5 0 9 -4 9 -10z"/>
<path d="M4502 6933 l3 -78 540 0 540 0 0 75 0 75 -132 3 -133 3 0 -35 c0 -19
6 -37 13 -39 6 -3 -4 -5 -23 -5 -19 0 -29 2 -22 5 6 2 12 20 12 39 l0 34 -98
0 -98 0 -10 -37 c-15 -62 -75 -57 -89 8 -7 33 -35 40 -35 8 0 -34 -19 -59 -45
-59 -26 0 -45 25 -45 59 0 17 -6 21 -35 21 -32 0 -35 -3 -35 -28 0 -15 5 -33
12 -40 9 -9 4 -12 -25 -12 -20 0 -37 5 -37 10 0 6 5 10 10 10 6 0 10 14 10 30
0 30 -1 30 -53 30 l-54 0 5 -32 c3 -18 10 -36 16 -40 6 -4 -5 -8 -23 -8 -27 0
-32 3 -23 12 7 7 12 25 12 40 l0 28 -80 0 -81 0 3 -77z"/>
<path d="M6100 7001 c0 -8 -8 -11 -20 -8 -16 4 -20 0 -20 -19 0 -34 37 -33 46
1 4 14 4 29 0 32 -3 4 -6 1 -6 -6z"/>
<path d="M4902 6975 c4 -28 42 -27 46 1 3 18 -2 22 -23 20 -20 -1 -25 -6 -23
-21z"/>
<path d="M5032 6975 c4 -28 42 -27 46 1 3 18 -2 22 -23 20 -20 -1 -25 -6 -23
-21z"/>
<path d="M11340 6978 c0 -23 29 -36 41 -17 13 20 6 32 -19 34 -15 1 -22 -4
-22 -17z"/>
<path d="M2487 6977 c-3 -8 -1 -20 4 -28 6 -10 9 -7 9 14 0 29 -5 35 -13 14z"/>
<path d="M8277 6893 l-97 -96 5 -46 c7 -55 -11 -95 -43 -99 -16 -3 -25 4 -34
25 -7 15 -13 30 -15 32 -6 8 -52 -42 -47 -50 3 -5 -5 -13 -18 -19 -13 -5 -77
-60 -143 -123 -105 -101 -118 -117 -106 -131 12 -14 10 -16 -18 -16 -24 0 -44
-13 -93 -60 -43 -40 -57 -59 -45 -60 15 0 17 -10 17 -74 0 -54 4 -75 14 -79
20 -8 56 35 56 65 0 66 36 104 69 74 16 -15 27 -6 182 142 90 86 190 182 222
212 l58 55 -12 46 c-28 103 53 170 87 70 l10 -31 23 24 c13 14 20 29 17 35 -4
6 4 13 19 17 23 6 25 10 25 65 0 54 -2 59 -22 60 -13 0 -17 3 -10 6 13 5 17
53 5 53 -5 0 -52 -44 -106 -97z"/>
<path d="M8250 6766 c0 -20 4 -23 21 -19 17 5 20 2 17 -13 -2 -11 -11 -18 -21
-18 -17 2 -24 -26 -10 -39 11 -11 43 24 43 47 0 41 -12 66 -31 66 -13 0 -19
-7 -19 -24z"/>
<path d="M8142 6764 c-11 -12 -10 -14 3 -14 10 0 15 -7 13 -17 -4 -23 -25 -28
-31 -6 -3 11 -5 6 -6 -12 0 -16 3 -36 8 -43 14 -23 41 14 41 58 0 44 -9 54
-28 34z"/>
<path d="M2760 6570 c0 -5 5 -10 10 -10 6 0 10 5 10 10 0 6 -4 10 -10 10 -5 0
-10 -4 -10 -10z"/>
<path d="M3720 6570 c0 -5 5 -10 10 -10 6 0 10 5 10 10 0 6 -4 10 -10 10 -5 0
-10 -4 -10 -10z"/>
<path d="M4538 6372 l-38 -3 0 -63 c0 -35 5 -67 12 -74 14 -14 118 -17 118 -3
0 17 34 22 46 7 16 -23 325 -24 344 -1 7 8 23 15 35 15 13 0 25 -7 29 -15 3
-9 18 -15 35 -15 16 0 31 6 35 15 3 8 15 15 26 15 11 0 20 -7 20 -15 0 -13 25
-15 164 -15 142 0 165 2 170 16 4 11 14 15 31 12 25 -5 25 -4 25 58 l0 64 -37
1 c-160 2 -986 3 -1015 1z"/>
<path d="M7742 6231 c-10 -6 -25 -71 -16 -71 8 0 54 49 54 58 0 13 -24 22 -38
13z"/>
<path d="M7547 6192 c-34 -35 -50 -82 -27 -82 6 0 10 -4 10 -10 0 -5 -17 -10
-37 -10 -36 1 -37 2 -19 15 11 8 17 17 15 19 -3 3 -58 -46 -124 -108 -116
-109 -119 -114 -117 -152 2 -21 8 -42 15 -46 7 -5 2 -8 -14 -8 -26 0 -26 2
-19 35 4 19 4 35 0 35 -4 0 -57 -47 -116 -105 l-109 -105 36 0 c19 0 41 6 47
12 10 10 17 10 32 0 59 -36 106 -8 303 181 89 85 177 168 195 183 40 36 40 44
0 44 -28 0 -30 1 -14 13 13 10 17 24 14 67 -4 69 -20 74 -71 22z"/>
<path d="M11030 6090 c0 -5 7 -10 16 -10 8 0 12 5 9 10 -3 6 -10 10 -16 10 -5
0 -9 -4 -9 -10z"/>
<path d="M6579 5836 c-3 -3 -31 -6 -62 -7 -31 -1 -54 -6 -51 -11 3 -4 1 -8 -5
-8 -5 0 -13 5 -16 10 -8 13 -179 13 -222 1 -20 -6 -35 -6 -38 0 -8 12 -75 12
-75 -1 0 -5 -13 -10 -30 -10 -16 0 -30 5 -30 10 0 14 -63 13 -78 -2 -9 -9 -18
-9 -37 0 -32 15 -89 16 -80 2 4 -6 -8 -10 -30 -10 -22 0 -34 4 -30 10 4 6 -8
10 -29 10 l-36 0 0 -81 0 -81 38 6 c20 4 46 6 57 6 180 -10 343 -9 364 2 19
10 25 10 28 1 6 -17 214 -18 230 -2 8 8 21 7 47 -2 30 -11 42 -11 73 0 27 10
38 11 41 2 5 -14 67 -14 93 0 15 7 24 7 34 -1 8 -6 29 -10 47 -8 l33 3 -80 77
c-50 48 -88 78 -102 78 -12 0 -28 2 -35 5 -8 3 -16 3 -19 1z"/>
<path d="M4500 5754 c0 -70 1 -75 19 -69 11 3 29 0 39 -6 16 -10 29 -10 59 -1
22 6 61 9 90 6 28 -4 58 -2 68 3 11 7 30 6 56 -3 28 -10 46 -11 65 -4 19 7 30
7 40 -1 9 -8 29 -9 61 -3 27 4 55 7 63 6 16 -2 402 -4 483 -3 l47 1 0 65 c0
63 -1 65 -25 65 -14 0 -25 5 -25 10 0 14 -56 13 -79 -2 -15 -9 -25 -9 -46 0
-32 15 -75 16 -75 2 0 -5 -13 -10 -30 -10 -16 0 -30 4 -30 9 0 5 -47 9 -105 9
-63 0 -103 -3 -100 -9 4 -5 -9 -9 -27 -9 -22 0 -29 3 -19 9 8 5 -58 9 -159 10
-110 1 -178 -3 -186 -10 -9 -7 -19 -7 -33 0 -11 6 -49 11 -85 11 l-66 0 0 -76z"/>
<path d="M10311 5648 c-11 -28 -10 -29 17 -21 13 3 22 13 22 24 0 26 -29 24
-39 -3z"/>
<path d="M13152 5570 c0 -14 2 -19 5 -12 2 6 2 18 0 25 -3 6 -5 1 -5 -13z"/>
<path d="M2196 5374 c-3 -9 -6 -28 -6 -44 0 -41 10 -60 30 -60 20 0 30 19 30
60 0 41 -10 60 -30 60 -10 0 -21 -7 -24 -16z m37 -30 c8 -8 -3 -34 -14 -34 -5
0 -9 9 -9 20 0 19 11 26 23 14z"/>
<path d="M8777 5362 c-29 -32 -16 -102 16 -89 17 6 26 46 19 82 -5 30 -13 31
-35 7z m23 -32 c0 -21 -15 -27 -25 -10 -7 12 2 30 16 30 5 0 9 -9 9 -20z"/>
<path d="M9666 5088 c-9 -35 -7 -68 4 -68 6 0 8 11 4 27 -6 23 -4 25 15 20 17
-4 21 -1 21 19 0 32 -35 33 -44 2z"/>
<path d="M12754 4816 c-3 -7 -4 -33 -2 -57 2 -35 7 -44 22 -44 10 0 22 10 27
23 8 20 6 22 -10 17 -23 -7 -38 12 -23 27 8 8 16 7 28 -3 16 -13 17 -12 11 11
-4 14 -7 28 -7 33 0 13 -40 7 -46 -7z"/>
<path d="M3480 4479 c0 -13 4 -30 9 -38 14 -22 41 -5 41 26 0 22 -2 25 -10 13
-9 -13 -12 -12 -25 4 -15 19 -15 19 -15 -5z"/>
<path d="M3610 4463 c0 -4 4 -14 9 -22 11 -17 45 -7 39 12 -5 13 -48 23 -48
10z"/>
<path d="M2610 4410 c0 -5 5 -10 11 -10 5 0 7 5 4 10 -3 6 -8 10 -11 10 -2 0
-4 -4 -4 -10z"/>
<path d="M5150 4159 c0 -5 5 -7 10 -4 6 3 10 8 10 11 0 2 -4 4 -10 4 -5 0 -10
-5 -10 -11z"/>
<path d="M7766 3518 c-21 -29 -20 -41 2 -61 24 -22 55 -21 75 1 22 24 21 45
-1 65 -26 23 -58 21 -76 -5z"/>
<path d="M10430 3484 c0 -40 2 -45 15 -34 12 10 18 10 30 0 13 -11 15 -6 15
34 0 44 -1 46 -30 46 -29 0 -30 -2 -30 -46z"/>
<path d="M12470 3460 c0 -5 5 -10 10 -10 6 0 10 5 10 10 0 6 -4 10 -10 10 -5
0 -10 -4 -10 -10z"/>
<path d="M10440 3415 c-14 -36 -13 -68 3 -90 16 -21 37 -13 37 14 0 12 -7 18
-17 17 -10 0 -19 7 -21 17 -2 12 3 17 18 17 16 0 21 5 18 22 -5 32 -26 34 -38
3z"/>
<path d="M3698 3393 c-12 -3 -18 -14 -18 -34 0 -16 -4 -29 -9 -29 -5 0 -7 9
-4 20 7 25 -9 26 -30 2 -25 -28 -21 -45 8 -40 21 4 23 3 13 -9 -6 -8 -17 -12
-24 -9 -21 8 -23 -6 -9 -41 18 -41 42 -53 125 -60 49 -4 74 -11 86 -24 24 -26
11 -65 -26 -77 -23 -8 -30 -17 -30 -36 0 -30 15 -33 65 -12 42 18 69 66 61
111 -10 53 -40 71 -141 85 -42 7 -65 16 -77 30 -23 28 -8 58 33 67 24 4 29 10
29 34 0 29 -9 33 -52 22z"/>
<path d="M5057 3389 c-46 -11 -87 -37 -87 -55 0 -8 -9 -23 -21 -35 -27 -27
-35 -87 -19 -144 16 -59 72 -110 130 -120 52 -9 125 2 144 21 8 8 19 14 24 14
5 0 17 17 26 38 9 20 21 45 26 54 25 44 -2 150 -47 190 -21 20 -97 49 -122 47
-9 -1 -33 -5 -54 -10z m119 -68 c61 -37 72 -156 18 -206 -34 -32 -57 -38 -109
-31 -70 11 -112 75 -100 153 13 87 114 131 191 84z"/>
<path d="M6395 3386 c-37 -11 -40 -15 -43 -50 l-3 -39 38 23 c70 41 153 22
176 -41 12 -29 30 -36 56 -20 12 8 12 14 1 40 -16 40 -61 77 -108 91 -46 12
-66 12 -117 -4z"/>
<path d="M3780 3367 c0 -15 9 -29 25 -37 14 -8 28 -24 32 -37 3 -16 11 -22 20
-19 8 3 22 6 31 7 12 0 11 3 -5 9 -14 6 -24 21 -29 45 -10 52 -74 80 -74 32z"/>
<path d="M7670 3366 c0 -23 4 -25 53 -28 l52 -3 8 -95 c4 -52 9 -119 10 -147
2 -47 5 -53 23 -53 21 0 21 4 23 175 l2 175 -86 0 c-84 0 -85 0 -85 -24z"/>
<path d="M9090 3360 c0 -32 1 -33 24 -24 24 9 21 54 -4 54 -16 0 -20 -7 -20
-30z"/>
<path d="M9184 3373 c0 -11 -6 -17 -16 -17 -10 1 -18 -2 -18 -7 0 -16 38 -10
44 7 8 22 7 34 -3 34 -5 0 -8 -8 -7 -17z"/>
<path d="M10350 3375 c0 -7 -8 -19 -17 -24 -16 -9 -16 -10 5 -11 17 0 22 6 22
25 0 14 -2 25 -5 25 -3 0 -5 -7 -5 -15z"/>
<path d="M10370 3365 c0 -18 5 -25 20 -25 15 0 20 7 20 25 0 18 -5 25 -20 25
-15 0 -20 -7 -20 -25z"/>
<path d="M10510 3366 c0 -27 18 -37 49 -29 14 3 21 13 21 29 0 21 -5 24 -35
24 -30 0 -35 -3 -35 -24z"/>
<path d="M10600 3365 c0 -16 6 -25 15 -25 9 0 15 9 15 25 0 16 -6 25 -15 25
-9 0 -15 -9 -15 -25z"/>
<path d="M11680 3258 c0 -73 5 -140 10 -148 8 -12 10 -11 10 6 0 12 9 33 20
47 25 32 29 127 5 127 -8 0 -15 5 -15 10 0 6 7 10 15 10 11 0 15 11 15 40 0
38 -2 40 -30 40 l-30 0 0 -132z"/>
<path d="M11940 3276 c0 -102 -2 -117 -23 -147 -13 -19 -26 -42 -30 -51 -11
-29 10 -30 32 -1 l20 28 1 -76 c0 -91 3 -89 -116 -89 -83 0 -84 0 -84 -25 l0
-25 113 0 c98 0 116 3 130 18 23 26 22 88 -3 119 -13 17 -20 41 -20 69 0 32 6
49 20 61 18 15 20 30 20 125 l0 108 -30 0 -30 0 0 -114z"/>
<path d="M9220 3352 c0 -16 9 -37 20 -47 11 -10 20 -26 20 -37 0 -16 -10 -18
-115 -18 -99 0 -114 2 -108 15 5 15 -21 44 -39 45 -14 0 -30 -85 -24 -129 6
-46 40 -111 58 -111 7 0 8 21 4 60 l-7 60 98 1 c188 3 185 3 195 28 13 37 0
71 -28 71 -22 0 -23 2 -12 21 11 18 10 23 -15 45 -37 31 -47 30 -47 -4z"/>
<path d="M9042 3356 c-25 -12 -26 -39 -1 -44 11 -2 19 6 23 24 8 32 7 33 -22
20z"/>
<path d="M3870 3338 c0 -9 5 -20 10 -23 13 -8 13 5 0 25 -8 13 -10 13 -10 -2z"/>
<path d="M6290 3294 c-31 -64 -25 -140 17 -192 45 -56 85 -73 164 -68 88 5
119 25 119 77 0 22 -3 39 -7 39 -5 0 -23 -16 -42 -35 -28 -29 -41 -35 -75 -35
-101 0 -160 94 -121 193 6 13 2 17 -16 17 -18 0 -20 3 -11 12 14 14 16 38 3
38 -5 0 -19 -21 -31 -46z"/>
<path d="M10430 3233 l0 -63 30 0 30 0 0 63 0 62 -30 0 -30 0 0 -62z"/>
<path d="M6608 3141 c-3 -17 -1 -31 3 -31 13 0 22 41 11 52 -6 6 -11 -1 -14
-21z"/>
<path d="M3617 3153 c-4 -3 -7 -17 -7 -30 0 -20 4 -23 21 -18 19 6 21 4 15
-19 -3 -14 -2 -26 3 -26 15 0 20 40 9 71 -9 28 -27 37 -41 22z"/>
<path d="M11982 3148 c-17 -17 -15 -93 2 -107 11 -10 14 -1 14 54 0 36 -1 65
-2 65 -1 0 -7 -5 -14 -12z"/>
<path d="M9255 3132 c-7 -24 -62 -52 -102 -52 -15 0 -45 9 -66 20 l-37 20 0
-34 c0 -29 4 -36 31 -45 100 -35 234 18 210 82 -11 28 -28 32 -36 9z"/>
<path d="M10435 3122 c-3 -16 -1 -41 4 -55 12 -31 41 -36 41 -8 0 12 -7 18
-17 17 -10 0 -19 7 -21 17 -2 12 3 17 17 17 14 0 21 6 21 20 0 33 -37 26 -45
-8z"/>
<path d="M11727 3144 c-12 -12 -8 -79 5 -92 21 -21 38 -14 38 16 0 19 -3 23
-9 13 -10 -16 -31 -6 -31 14 0 7 5 15 12 17 8 3 8 9 2 21 -6 10 -13 14 -17 11z"/>
<path d="M3677 3075 c-5 -28 15 -45 52 -45 33 0 29 48 -5 60 -37 14 -41 13
-47 -15z"/>
<path d="M7650 3065 c0 -21 5 -25 30 -25 25 0 30 4 30 25 0 21 -5 25 -30 25
-25 0 -30 -4 -30 -25z"/>
<path d="M7933 3073 c-3 -10 -8 -21 -10 -25 -2 -5 5 -8 16 -8 14 0 21 6 21 19
0 27 -19 36 -27 14z"/>
<path d="M10510 3081 c0 -5 -3 -16 -6 -25 -5 -13 2 -16 35 -16 37 0 41 2 41
25 0 22 -4 25 -35 25 -19 0 -35 -4 -35 -9z"/>
<path d="M10597 3070 c-3 -11 -1 -23 4 -26 5 -3 9 6 9 20 0 31 -6 34 -13 6z"/>
<path d="M11823 3082 c-28 -3 -33 -7 -33 -28 0 -23 3 -25 37 -22 27 2 39 8 41
22 5 25 -7 32 -45 28z"/>
<path d="M7732 3060 c5 -23 48 -26 48 -3 0 13 -8 18 -25 18 -17 0 -25 -5 -23
-15z"/>
<path d="M7862 3060 c2 -8 12 -15 23 -15 11 0 21 7 23 15 2 10 -6 15 -23 15
-17 0 -25 -5 -23 -15z"/>
<path d="M5620 1800 c0 -5 7 -10 15 -10 8 0 15 5 15 10 0 6 -7 10 -15 10 -8 0
-15 -4 -15 -10z"/>
<path d="M8970 360 c0 -5 5 -10 10 -10 6 0 10 5 10 10 0 6 -4 10 -10 10 -5 0
-10 -4 -10 -10z"/>
</g>
</svg>
